<svg xmlns="http://www.w3.org/2000/svg" width="27" height="27" viewBox="0 0 27 27"><g fill="none" stroke="#999" stroke-miterlimit="10"><path stroke-linecap="round" d="M2.5 17v3.34c0 2.116 4.477 3.746 10 3.746 5.522 0 10-1.8 10-3.916V17"/><path stroke-linecap="round" d="M22.475 16.51c.154.267.235.545.235.83 0 2.116-4.478 3.83-10 3.83-5.523 0-10-1.714-10-3.83 0-.882.777-1.693 2.083-2.34"/><path d="M11.5 21v3m3-3v3m3-3v2m2-3v3m2-4v3"/><path stroke-linecap="round" d="M7.5 21v2m-2-3v3m-2-4v3m1-10v2.34c0 2.116 4.477 3.746 10 3.746 5.522 0 10-1.8 10-3.916V11"/><path stroke-linecap="round" d="M22.69 9.032c1.268.642 2.02 1.44 2.02 2.308 0 2.116-4.478 3.83-10 3.83-5.523 0-10-1.714-10-3.83"/><path d="M13.5 15v3m3-3v3m3-3v2m2-3v3m2-4v3"/><path stroke-linecap="round" d="M9.5 15v2m-2-3v3m-2-4v3M2.5 6v3.34c0 2.116 4.477 3.746 10 3.746 5.522 0 10-1.8 10-3.916V6"/><ellipse stroke-linecap="round" cx="12.71" cy="6.34" rx="10" ry="3.831"/><path d="M11.5 10v3m3-3v3m3-3v2m2-3v3m2-4v3"/><path stroke-linecap="round" d="M7.5 10v2m-2-3v3m-2-4v3"/></g></svg>