<svg xmlns="http://www.w3.org/2000/svg" width="27" height="27" viewBox="0 0 27 27"><g fill-rule="evenodd" clip-rule="evenodd"><path fill="#D4D4D4" d="M6.15 2.5c.004-.125.006-.25.007-.375.354-.03.537-.22.54-.58 0 0-.002 0-.002.002.36-.004.548-.19.576-.547h12.837c.026.36.216.543.576.546l-.002-.002c.003.362.187.553.543.58l.005.377c-.513.05-.555.414-.554.823.002 6.54.002 13.08 0 19.62 0 .41.04.772.554.823 0 .126-.003.25-.005.377-.355.028-.54.218-.54.58-.36 0-.55.186-.576.543H7.27c-.027-.358-.215-.543-.576-.544 0-.36-.183-.55-.537-.58 0-.126-.003-.25-.006-.377.585-.063.538-.5.556-.92.04-.86-.11-1.735.105-2.616.357.132.46.54.834.5.045.513.398.568.81.568 3.49-.004 6.98-.004 10.47 0 .41 0 .763-.056.81-.57.51-.044.565-.4.565-.813-.004-5.028-.004-10.055 0-15.083 0-.415-.057-.77-.566-.815-.046-.514-.398-.57-.81-.57-3.49.004-6.98.004-10.47 0-.412 0-.765.056-.81.57-.394-.084-.467.486-.942.436 0-.415-.005-.818 0-1.223.007-.392-.103-.687-.55-.73zm6.787 20.127c-.266.02-.385.163-.366.428.018.235.17.31.375.326l.37.374c.006.235.085.518.316.5.514-.037.763-.51 1.04-.86.333-.417-.082-1.26-.766-1.565-.568-.257-.68.193-.78.604l-.187.193z"/><path fill="#D9D9D9" d="M7.645 20.73c-.374.042-.477-.367-.833-.5-.216.88-.066 1.756-.105 2.617-.018.42.03.856-.555.92V2.5c.447.043.557.338.552.73-.007.405-.002.808-.002 1.223.475.05.548-.52.942-.434l.014.012v16.685l-.013.013zM21.228 23.766c-.514-.05-.555-.413-.554-.823.002-6.54.002-13.08 0-19.62 0-.41.04-.772.554-.822v21.266zM21.223 2.125c-.355-.028-.54-.22-.542-.58.346.037.55.21.543.58zM6.696 1.544c-.002.36-.185.552-.54.58-.01-.372.196-.54.54-.58z"/><path fill="#D9D9D9" d="M20.684 1.546c-.36-.003-.55-.188-.576-.545.368-.006.54.198.576.546zM7.27 1c-.027.358-.215.543-.575.547.035-.35.207-.553.576-.547zM6.157 24.143c.354.03.538.22.538.58-.345-.038-.55-.208-.538-.58zM20.683 24.724c0-.363.185-.553.54-.58.006.368-.194.542-.54.58zM6.694 24.723c.36 0 .55.186.577.544-.366.005-.542-.194-.576-.544z"/><path fill="#D9D9D9" d="M20.107 25.266c.027-.358.216-.543.577-.543-.035.35-.21.55-.577.543zM19.734 4.02c.51.045.565.4.565.814-.004 5.027-.004 10.055 0 15.083 0 .414-.057.77-.566.814l-.014-.013V4.032l.014-.013z"/><path fill="#D9D9D9" d="M7.645 4.02c.045-.516.397-.57.81-.57 3.49.003 6.98.003 10.47 0 .41 0 .763.055.81.57l-.015.012H7.658l-.013-.013zM19.734 20.73c-.046.514-.398.57-.81.57-3.49-.005-6.98-.005-10.47 0-.412 0-.765-.057-.81-.57l.014-.014H19.72l.014.014zM13.122 22.435c.102-.412.212-.86.78-.605.685.306 1.1 1.148.768 1.565-.278.35-.527.823-1.04.86-.23.018-.31-.266-.316-.5.173-.064.343-.136.518-.19.37-.115.49-.387.388-.723-.18-.59-.7-.35-1.098-.407z"/><path fill="#FEFEFE" d="M13.122 22.435c.396.057.917-.184 1.098.407.102.335-.02.607-.388.722-.175.055-.345.127-.518.19-.124-.123-.247-.248-.37-.372-.004-.252-.006-.502-.008-.754l.186-.193z"/><path fill="#D9D9D9" d="M12.937 22.627c.002.25.004.502.008.754-.204-.016-.357-.09-.374-.325-.018-.265.1-.41.367-.428z"/><path fill="#FEFEFE" d="M19.72 20.716H7.658V4.03H19.72v16.686zM9.536 12.444c-.077.913.262 1.695.932 2.253.526.438.374 1.296.743 1.5.465.257 1.156-.39 1.794-.2 1.312.394 2.51-.053 3.574-.675 1.74-1.016 2.276-3.383.77-4.91-1.277-1.296-2.778-1.642-4.46-1.427-1.688.217-3.335 1.974-3.352 3.46z"/><path fill="#D4D4D4" d="M9.536 12.444c.017-1.485 1.664-3.242 3.35-3.458 1.685-.214 3.185.13 4.463 1.428 1.504 1.526.967 3.893-.772 4.91-1.064.62-2.262 1.067-3.574.674-.638-.19-1.33.457-1.793.2-.368-.205-.216-1.063-.742-1.5-.67-.56-1.01-1.34-.932-2.254zm3.382-.97c.004-.33-.127-.557-.463-.593-.36-.038-.606.115-.633.503-.023.322.125.548.46.586.36.04.593-.12.636-.497zm2.475.505c.335-.02.532-.186.543-.52.012-.376-.18-.586-.56-.584-.327.003-.52.182-.533.515-.015.38.18.574.55.59z"/><path fill="#FEFEFE" d="M12.918 11.473c-.044.377-.275.537-.637.496-.333-.04-.48-.265-.458-.587.027-.388.273-.542.633-.502.336.037.468.264.463.593zM15.393 11.98c-.368-.016-.564-.21-.55-.59.012-.332.206-.51.534-.514.38-.002.57.208.56.584-.012.334-.21.5-.544.52z"/></g></svg>