<svg xmlns="http://www.w3.org/2000/svg" xmlns:xlink="http://www.w3.org/1999/xlink" width="27" height="27" viewBox="0 0 27 27"><path fill="none" stroke="#999" stroke-linecap="round" stroke-miterlimit="10" d="M-24 7.5H-.5V19"/><g fill="none" stroke="#F7F7F7" stroke-miterlimit="10"><path d="M26 14.098s-5.484 6.334-12.25 6.334S1.5 14.098 1.5 14.098s5.484-6.334 12.25-6.334S26 14.098 26 14.098z"/><circle cx="13.732" cy="13.916" r="4.084"/></g><defs><path id="a" d="M-7.18 28.477c-.576 0-3.626-.063-5.076-.063-6.282 0-10.844 3.26-10.844 9.34 0 3.354 1.782 5.79 2.658 6.457.15.13.302.16.453.16.697 0 1.45-1.045 1.45-1.867 0-.317-.12-.54-.452-.444-.786-.824-1.722-2.12-1.722-4.306 0-4.907 3.415-6.522 7.16-6.838V48.39c0 1.614-.242 2.31-.786 2.31-.303 0-.515-.253-.515.16 0 .6 1.208 1.835 1.963 1.835.998 0 1.693-1.108 1.693-3.894V30.85c1.42.034 3.505.096 3.928.096.785 0 1.18-.918 1.18-1.678 0-.474-.183-1.044-.364-1.044-.09 0-.21.253-.724.253"/></defs><clipPath id="b"><use xlink:href="#a" overflow="visible"/></clipPath><linearGradient id="c" gradientUnits="userSpaceOnUse" x1="-754.793" y1="3375.17" x2="-754.741" y2="3375.17" gradientTransform="rotate(30 -2389558.348 -99936.896) scale(357.9453)"><stop offset="0" stop-color="#48C1C4"/><stop offset=".466" stop-color="#48C1C4"/><stop offset="1" stop-color="#1B6868"/></linearGradient><path clip-path="url(#b)" fill="url(#c)" d="M-18.848 20.506L4.017 34.34l-14.362 26.07-22.866-13.833"/></svg>