<svg xmlns="http://www.w3.org/2000/svg" xmlns:xlink="http://www.w3.org/1999/xlink" width="27" height="27" viewBox="0 0 27 27"><g fill="none" stroke="#999" stroke-linecap="round" stroke-miterlimit="10"><path d="M25.5 20.5c0 1.104-.896 2-2 2h-19c-1.104 0-2-.896-2-2v-13c0-1.104.896-2 2-2h19c1.104 0 2 .896 2 2v13zm-15.007-6.296l-7.64 7.04m22 0L17.18 14.36"/><path d="M2.854 6.946l11.148 10 10.852-10"/></g><defs><path id="a" d="M19.82-25.523c-.576 0-3.626-.063-5.076-.063-6.282 0-10.844 3.26-10.844 9.34 0 3.354 1.782 5.79 2.658 6.457.15.13.302.16.453.16.697 0 1.45-1.045 1.45-1.867 0-.317-.12-.54-.452-.444-.786-.824-1.722-2.12-1.722-4.306 0-4.907 3.415-6.522 7.16-6.838V-5.61c0 1.614-.242 2.31-.786 2.31-.303 0-.515-.253-.515.16 0 .6 1.208 1.835 1.963 1.835.998 0 1.693-1.108 1.693-3.894v-17.95c1.42.035 3.505.097 3.928.097.785 0 1.18-.918 1.18-1.678 0-.475-.183-1.045-.364-1.045-.09 0-.21.253-.724.253"/></defs><clipPath id="b"><use xlink:href="#a" overflow="visible"/></clipPath><linearGradient id="c" gradientUnits="userSpaceOnUse" x1="-727.793" y1="3321.17" x2="-727.741" y2="3321.17" gradientTransform="rotate(30 -2348543.543 -108283.464) scale(357.9453)"><stop offset="0" stop-color="#48C1C4"/><stop offset=".466" stop-color="#48C1C4"/><stop offset="1" stop-color="#1B6868"/></linearGradient><path clip-path="url(#b)" fill="url(#c)" d="M8.152-33.494L31.017-19.66 16.655 6.41-6.21-7.422"/></svg>