<?xml version="1.0" encoding="utf-8"?>
<!-- Generator: Adobe Illustrator 16.0.0, SVG Export Plug-In . SVG Version: 6.00 Build 0)  -->
<!DOCTYPE svg PUBLIC "-//W3C//DTD SVG 1.1//EN" "http://www.w3.org/Graphics/SVG/1.1/DTD/svg11.dtd">
<svg version="1.1" xmlns="http://www.w3.org/2000/svg" xmlns:xlink="http://www.w3.org/1999/xlink" x="0px" y="0px" width="27px"
	 height="27px" viewBox="0 0 27 27" enable-background="new 0 0 27 27" xml:space="preserve">
<g id="original" display="none">
</g>
<g id="grid">
</g>
<g id="vector">
	<g id="X4RZiv.tif_1_">
		<g>
			<path fill-rule="evenodd" clip-rule="evenodd" fill="#999999" d="M12.783,14.21c0,3.221,0,6.413,0,9.629
				c-3.083,0-6.153,0-9.247,0c0-3.199,0-6.399,0-9.629C6.604,14.21,9.68,14.21,12.783,14.21z M11.275,22.238
				c0-0.142,0-0.265,0-0.386c-0.001-1.906-0.007-3.814,0.003-5.72c0.002-0.288-0.074-0.372-0.353-0.371
				c-1.849,0.013-3.698,0.007-5.547,0.008c-0.099,0-0.196,0.009-0.306,0.015c0,2.166,0,4.306,0,6.454
				C7.143,22.238,9.188,22.238,11.275,22.238z"/>
			<path fill-rule="evenodd" clip-rule="evenodd" fill="#999999" d="M14.389,2.885c3.089,0,6.16,0,9.248,0c0,3.211,0,6.405,0,9.628
				c-3.075,0-6.154,0-9.248,0C14.389,9.303,14.389,6.102,14.389,2.885z M15.917,4.487c-0.009,0.097-0.024,0.18-0.024,0.261
				c-0.001,1.968,0.002,3.938-0.005,5.908c-0.001,0.229,0.067,0.305,0.292,0.303c1.879-0.007,3.758-0.003,5.637-0.004
				c0.089,0,0.177-0.012,0.276-0.02c0-2.161,0-4.3,0-6.448C20.024,4.487,17.979,4.487,15.917,4.487z"/>
			<path fill-rule="evenodd" clip-rule="evenodd" fill="#999999" d="M3.529,2.884c3.088,0,6.159,0,9.248,0c0,3.218,0,6.42,0,9.64
				c-3.088,0-6.159,0-9.248,0C3.529,9.304,3.529,6.103,3.529,2.884z M5.069,4.488C5.061,4.565,5.051,4.627,5.051,4.686
				C5.05,6.687,5.054,8.688,5.045,10.688c-0.002,0.271,0.132,0.269,0.319,0.269c1.859-0.003,3.718-0.006,5.577,0.007
				c0.266,0.001,0.341-0.079,0.34-0.355c-0.012-1.937-0.008-3.874-0.01-5.812c0-0.099-0.011-0.199-0.019-0.307
				C9.176,4.488,7.131,4.488,5.069,4.488z"/>
			<path fill-rule="evenodd" clip-rule="evenodd" fill="#999999" d="M17.457,19.029c0.002-0.451,0.014-0.902,0.005-1.352
				c-0.004-0.203,0.053-0.278,0.255-0.273c0.42,0.014,0.841,0.005,1.296,0.005c0-1.08,0-2.131,0-3.204c1.034,0,2.034,0,3.079,0
				c0,0.418,0.014,0.834-0.006,1.247c-0.014,0.271,0.056,0.376,0.332,0.359c0.398-0.025,0.799-0.007,1.217-0.007
				c0,1.079,0,2.122,0,3.198c-1.018,0-2.029,0-3.09,0c0,0.448-0.012,0.862,0.004,1.275c0.01,0.255-0.06,0.36-0.319,0.347
				c-0.39-0.019-0.78-0.005-1.2-0.005c0-0.543,0-1.052,0-1.604c-0.549,0-1.066,0-1.584,0L17.457,19.029z"/>
			<path fill-rule="evenodd" clip-rule="evenodd" fill="#999999" d="M19.026,22.211c-0.431,0.006-0.862,0.025-1.293,0.017
				c-0.218-0.006-0.304,0.057-0.294,0.3c0.017,0.425,0.005,0.855,0.005,1.308c-0.502,0-0.987,0-1.513,0c0-0.519,0-1.036,0-1.595
				c-0.532,0-1.027,0-1.54,0c0-0.538,0-1.037,0-1.588c0.399,0,0.796-0.019,1.192,0.008c0.289,0.019,0.363-0.093,0.348-0.375
				c-0.019-0.403-0.004-0.81-0.004-1.256c0.533,0,1.032,0,1.531,0l-0.011-0.013c-0.001,0.45,0.007,0.902-0.008,1.353
				c-0.006,0.217,0.058,0.295,0.273,0.288c0.419-0.015,0.838-0.006,1.307-0.006c0,0.548,0,1.06,0,1.569L19.026,22.211z"/>
			<path fill-rule="evenodd" clip-rule="evenodd" fill="#999999" d="M19.018,22.221c0.507,0,1.013,0,1.558,0c0-0.51,0-1.019,0-1.547
				c1.036,0,2.035,0,3.056,0c0,0.503,0,1.002,0,1.552c-0.493,0-0.997,0-1.537,0c0,0.563,0,1.082,0,1.617c-1.035,0-2.035,0-3.069,0
				c0-0.549,0-1.092,0-1.632L19.018,22.221z"/>
			<path fill-rule="evenodd" clip-rule="evenodd" fill="#999999" d="M17.417,17.391c-0.507,0-0.988,0-1.511,0
				c0,0.536,0,1.057,0,1.596c-0.526,0-1.012,0-1.516,0c0-1.05,0-2.094,0-3.182c0.419,0,0.828-0.013,1.235,0.006
				c0.245,0.01,0.313-0.084,0.304-0.327c-0.015-0.418-0.004-0.836-0.004-1.275c0.505,0,0.984,0,1.491,0
				C17.417,15.249,17.417,16.298,17.417,17.391z"/>
			<path fill-rule="evenodd" clip-rule="evenodd" fill="#999999" d="M8.177,20.62c-0.432,0-0.863-0.006-1.295,0.001
				c-0.192,0.006-0.263-0.067-0.262-0.273c0.007-0.887,0.006-1.776,0-2.664c-0.001-0.194,0.045-0.282,0.251-0.279
				c0.864,0.01,1.727,0.009,2.59,0c0.183-0.001,0.246,0.062,0.244,0.253c-0.007,0.901-0.008,1.8,0.001,2.699
				c0.002,0.213-0.079,0.27-0.265,0.265C9.02,20.614,8.599,20.62,8.177,20.62z"/>
			<path fill-rule="evenodd" clip-rule="evenodd" fill="#999999" d="M19.005,9.317c-0.421,0-0.844-0.009-1.265,0.005
				c-0.203,0.006-0.283-0.052-0.28-0.28c0.011-0.889,0.011-1.778,0.001-2.666c-0.002-0.209,0.066-0.273,0.26-0.271
				c0.853,0.009,1.706,0.011,2.559-0.001c0.221-0.002,0.271,0.092,0.269,0.3c-0.006,0.88-0.008,1.756,0,2.635
				c0.003,0.221-0.071,0.292-0.279,0.284C19.848,9.309,19.425,9.317,19.005,9.317z"/>
			<path fill-rule="evenodd" clip-rule="evenodd" fill="#999999" d="M9.702,7.726c0,0.44-0.006,0.879,0.003,1.318
				C9.71,9.241,9.66,9.324,9.455,9.322C8.591,9.312,7.729,9.312,6.866,9.32C6.683,9.322,6.619,9.258,6.62,9.068
				c0.004-0.899,0.006-1.8-0.001-2.698C6.616,6.157,6.702,6.104,6.889,6.105c0.853,0.008,1.705,0.008,2.558-0.001
				c0.195-0.002,0.265,0.065,0.26,0.273C9.694,6.827,9.702,7.276,9.702,7.726z"/>
		</g>
	</g>
</g>
<g id="measurement" display="none">
</g>
</svg>
