<svg xmlns="http://www.w3.org/2000/svg" width="27" height="27" viewBox="0 0 27 27"><g fill-rule="evenodd" clip-rule="evenodd" fill="#999"><path d="M12.783 14.21v9.63H3.536v-9.63h9.247zm-1.508 8.028v-.386c0-1.906-.007-3.814.003-5.72.002-.288-.074-.372-.353-.37-1.85.012-3.698.006-5.547.007-.1 0-.196.008-.306.014v6.454h6.203zM14.39 2.885h9.247v9.628H14.39V2.885zm1.527 1.602c-.01.097-.024.18-.024.26 0 1.97.002 3.94-.005 5.91 0 .228.067.304.292.302 1.88-.008 3.758-.004 5.637-.005.09 0 .177-.012.276-.02V4.487h-6.176zM3.53 2.884h9.247v9.64H3.53v-9.64zm1.54 1.604c-.01.077-.02.14-.02.198 0 2 .004 4.002-.005 6.002-.002.27.132.27.32.27 1.858-.004 3.717-.007 5.576.006.267 0 .342-.08.34-.355-.01-1.938-.007-3.875-.01-5.813 0-.1-.01-.2-.018-.307-2.076-.002-4.12-.002-6.183-.002zM17.457 19.03c.002-.452.014-.903.005-1.353-.004-.203.053-.278.255-.273.42.014.84.005 1.296.005v-3.205h3.08c0 .418.013.834-.007 1.247-.014.27.056.376.332.36.398-.026.8-.008 1.217-.008v3.198h-3.09c0 .448-.012.862.004 1.275.01.255-.06.36-.32.347-.39-.02-.78-.005-1.2-.005v-1.605h-1.584l.01.014z"/><path d="M19.026 22.21c-.43.007-.862.026-1.293.018-.218-.006-.304.057-.294.3.016.425.004.855.004 1.308H15.93V22.24h-1.54v-1.587c.4 0 .797-.02 1.193.008.29.02.363-.092.348-.374-.018-.403-.003-.81-.003-1.256h1.53l-.01-.013c0 .45.007.902-.008 1.353-.007.217.057.295.272.288.42-.015.838-.006 1.307-.006v1.57l.006-.01z"/><path d="M19.018 22.22h1.558v-1.546h3.056v1.552h-1.537v1.617h-3.07V22.21l-.007.01zM17.417 17.39h-1.51v1.597H14.39v-3.182c.42 0 .828-.013 1.235.006.245.01.313-.083.304-.326-.016-.418-.005-.836-.005-1.275h1.49c.002 1.04.002 2.088.002 3.18zM8.177 20.62c-.432 0-.863-.006-1.295 0-.192.007-.263-.066-.262-.272.007-.887.006-1.776 0-2.664 0-.194.045-.282.25-.28.865.01 1.728.01 2.59 0 .184 0 .247.063.245.254-.007.9-.008 1.8 0 2.7.003.212-.078.27-.264.264-.42-.008-.84-.002-1.263-.002zM19.005 9.317c-.42 0-.844-.01-1.265.005-.203.006-.283-.052-.28-.28.01-.89.01-1.778 0-2.666 0-.21.067-.273.26-.27.854.008 1.707.01 2.56-.002.22-.002.27.092.27.3-.007.88-.01 1.756 0 2.635.002.22-.072.29-.28.283-.422-.014-.845-.006-1.265-.006zM9.702 7.726c0 .44-.006.88.003 1.318.005.197-.045.28-.25.278-.864-.01-1.726-.01-2.59-.002-.182.002-.246-.062-.245-.252.004-.9.006-1.8 0-2.698-.004-.213.082-.266.27-.265.852.008 1.704.008 2.557 0 .195-.003.265.064.26.272-.013.45-.005.9-.005 1.35z"/></g></svg>