<svg xmlns="http://www.w3.org/2000/svg" width="27" height="27" viewBox="0 0 27 27"><g fill-rule="evenodd" clip-rule="evenodd" fill="#D6D6D6"><path d="M14.68 17.306c1.294 0 2.587.002 3.88 0 1.424-.004 2.04-.744 1.803-2.163-.185-1.11.345-2.025 1.38-2.386.81-.282 1.33.046 1.282.903-.09 1.614.236 3.155.59 4.712.224.99.225 2.056.02 3.033-.212 1.005-.874 1.817-1.92 2.205-1.527.564-3.11.37-4.65.226-1.162-.11-1.89-1.014-2.273-2.126-.026-.077-.017-.167-.044-.243-.508-1.382-.7-1.514-2.195-1.514-.688 0-1.376.007-2.064-.003-.852-.012-1.334-.493-1.336-1.312-.003-.82.48-1.32 1.317-1.328 1.404-.01 2.807-.003 4.21-.004zM12.858 10.695h-3.88c-1.375 0-2.023.726-1.785 2.08.21 1.194-.292 2.033-1.452 2.488-.692.272-1.245-.085-1.203-.837.093-1.667-.275-3.255-.59-4.874-.207-1.07-.268-2.222.15-3.33.43-1.147 1.242-1.81 2.387-2.028 1.328-.254 2.698-.224 4.02-.035 1.163.166 1.868 1.056 2.27 2.15.02.05.008.11.026.16.5 1.44.697 1.577 2.23 1.577.688 0 1.376-.008 2.064.003.835.014 1.32.512 1.315 1.333-.005.816-.49 1.3-1.342 1.306-1.403.01-2.806.004-4.21.005z"/></g></svg>