<svg xmlns="http://www.w3.org/2000/svg" width="29" height="29" viewBox="0 0 29 29"><path fill="#965458" d="M-.317-.364h29.633v29.817H-.317z"/><path fill="#550F0E" d="M11.54 17.407c-.114-.086-2.194-1.372-2.194-1.372.143.8.25 1.128.04 1.67-.187.49-.548.68-.747.85-.2.172-.606.3-.747.3-.145 0-.305-.025-.305-.025s.33.184 1.16.147c.348-.015.568-.103.71-.204-.162.266-.315.646-.144.998.626 1.28-.21 1.7-.21 1.7s.74-.074 1.165-.448c0 .01 0 .02.003.03.188.64.684.713.684.713s-.312-.053-.253-.648c.017-.16.18-.22.385-.328.08.573.338 1.16-.197 1.4 0 0 .904-.18 1.07-.72.03-.1.045-.19.06-.28.015.05.034.096.044.15.13.686-.392 1.352-.392 1.352s1.878-.2 1.892-.947c.002-.112.025-.57.082-.74s.17-1.03.17-1.03-2.166-2.483-2.28-2.568zM19.312 17.407c.115-.086 2.195-1.372 2.195-1.372-.143.8-.25 1.128-.04 1.67.187.49.547.68.747.85.2.172.604.3.746.3.144 0 .305-.025.305-.025s-.33.184-1.16.147c-.348-.015-.568-.103-.712-.204.164.266.317.646.145.998-.626 1.28.21 1.7.21 1.7s-.74-.074-1.165-.448c0 .01 0 .02-.003.03-.188.64-.685.713-.685.713s.313-.053.253-.648c-.016-.16-.18-.22-.385-.328-.08.573-.338 1.16.197 1.4 0 0-.904-.18-1.07-.72-.03-.1-.045-.19-.06-.28-.017.05-.034.096-.045.15-.127.686.392 1.352.392 1.352s-1.877-.2-1.89-.947c-.003-.112-.026-.57-.083-.74-.058-.172-.172-1.03-.172-1.03s2.167-2.483 2.28-2.568z"/><path fill="#E1BF9C" d="M15.424 18.476v10.97h-5.95l-.147-.06c0-5.886 3.644-6.325 3.644-6.325.364 0 .598-.468.752-1.178.025-.11.046-.222.063-.344.033-.2.062-.415.083-.635l.037-.406c.055-.673.07-1.405.07-2.1 0 0 .802.08 1.45.08z"/><path fill="#F2D1AC" d="M21.542 29.384s-.054.02-.142.062h-5.977v-10.97h.013c.646 0 1.452-.08 1.452-.08 0 .69.017 1.415.07 2.084l.038.397c.025.23.05.447.084.652v.003c.012.092.028.176.046.26.154.756.396 1.267.77 1.267.003 0 3.646.44 3.646 6.324z"/><path opacity=".7" fill="#C09A80" d="M17.082 21.53v.004c-.146.235-.65.9-1.648.9h-.01c-.946-.006-1.498-.695-1.64-.897.034-.2.063-.415.084-.635l.037-.406c.464.118.964.188 1.503.196h.017c.552-.008 1.06-.083 1.536-.212l.038.397c.025.23.05.448.084.653z"/><path fill="#D3A789" d="M15.442 5.894c-6.305 0-6.34 5.29-6.06 8.75-.433-.82-1.712-.566-1.607.725.102 1.245 1.908 1.888 1.883 1.743.518 2.85 3.483 4.494 5.784 4.494l.048-.002V5.895h-.048z"/><path fill="#C09A80" d="M8.178 14.823c.312-.5.792-.284.91-.174.126.12.225.277.147.573-.043.164-.218.177-.175.43.047.284.178.302.252.367.074.064.166.113.213.232.045.12.053.25.027.357-.047.203-.344.04-.543-.05-.132-.06-.548-.413-.653-.53-.266-.3-.387-.875-.18-1.207z"/><path fill="#E0B89B" d="M15.472 5.894c6.305 0 6.34 5.29 6.06 8.75.433-.82 1.712-.566 1.607.725-.102 1.245-1.91 1.888-1.885 1.743-.516 2.85-3.482 4.494-5.783 4.494l-.048-.002V5.895h.048z"/><path fill="#C09A80" d="M22.736 14.823c-.31-.5-.792-.284-.91-.174-.125.12-.225.277-.147.573.043.165.218.178.175.43-.046.284-.177.302-.253.367-.073.064-.166.113-.212.232-.045.12-.054.25-.028.357.05.203.346.04.544-.05.132-.06.547-.413.652-.53.264-.3.387-.875.178-1.207z"/><path fill="#E1BF9C" d="M15.387 7.385c-2.075 0-3.593.603-4.513 1.795-1.283 1.664-1.234 4.207-.76 6.03.145.558.22 2.06.318 2.614.447 2.467 3.164 3.782 4.954 3.782l.048-.002V7.386h-.047z"/><path fill="#F2D1AC" d="M19.89 9.184C18.975 8 17.475 7.396 15.434 7.386v14.218c2.043-.022 4.484-1.462 4.904-3.78.1-.552.173-2.056.318-2.614.472-1.818.52-4.357-.77-6.026z"/><path fill="#550F0E" d="M22.33 11.038c-.035-.09-.084-.18-.133-.257-.12-.9-.758-2.707-1.382-3.613-.65-.942-2.24-1.776-4.285-2.026-2.046-.25-3.826 1.202-3.826 1.202s-.315-.472-.587-.61c-.27-.14-1.05.026-1.05.026s.528.148.632.287c.195.26.104.51.104.51s-.616-.267-.887-.274c-.496-.013-1.052.616-1.052.616s.464-.328.908-.315c.146.005.548.197.548.197s-.73.077-2.104 1.583C8.18 9.496 8.18 10.998 8.18 10.998l.867-.5s-.226.264-.335.54c-.64 1.594.236 3.194.236 3.194s.285.03.547.643c.353.832.574 1.862.574 1.862h.304s-.657-2.568-.215-3.966c.122-.384.452-1.174.913-1.2 0 0 .303-.267.438-.795.135-.53.84-1.413 1.22-1.58.38-.166.595.084.595.084s.597-.472 1.68-.666c1.083-.194 1.68.97 1.916 1.58.237.61.115.915.115.915s.46-.75.407-1.5c-.018-.24-.067-.426-.125-.57.14.072.758.245.883 1.846.06.76-.623 1.276-.623 1.276s1.52-.632 1.207-2.58c.324.35.658.845.746 1.192.135.528 1.274 1.755 1.352 1.997.442 1.398-.214 3.967-.214 3.967h.305s.22-1.03.574-1.862c.26-.614.547-.643.547-.643s.876-1.6.236-3.194zm-5.165-2.283l-.022-.032.025.025-.003.007z"/><path fill="#FEF5F0" d="M21.59 29.386s-.05.02-.145.062H9.475l-.15-.062c0-.176.005-.352.01-.518.017-.385.05-.75.095-1.083.038-.285.084-.548.146-.8.02-.112.05-.22.08-.33.04-.147.083-.288.13-.427.036-.112.077-.22.12-.327.12-.304.258-.58.404-.823.268-.455.572-.81.877-1.083.254-.234.505-.406.738-.54.005 0 .013-.003.017-.007.005-.005.01-.005.01-.005.028.07.194.264.487.552.282.28.69.648 1.213 1.083.034.025.07.06.108.09 1.083.876 2.317.876 3.395 0 .038-.03.075-.065.108-.09.525-.435.936-.803 1.22-1.083.292-.29.454-.48.487-.552 0 0 .004 0 .004.005.005.004.018.008.02.008.235.133.485.305.74.54.304.27.604.627.876 1.082.146.243.283.52.4.824.042.106.084.215.12.328.05.14.093.28.135.427.03.11.054.218.08.33.058.25.103.515.14.8.047.333.08.7.098 1.083.004.166.008.34.008.518z"/><path fill="#B64F6B" d="M12.44 23.994c.282.28.69.648 1.213 1.083H10.31c.268-.455.572-.81.877-1.083h1.252zM20.61 25.077h-3.347c.525-.435.936-.803 1.22-1.083h1.25c.306.272.606.628.878 1.083zM15.36 26.472c-.71 0-1.286.577-1.286 1.29 0 .71.576 1.288 1.287 1.288.103 0 .202-.012.298-.035.406-.096.736-.385.893-.765.02-.047.037-.097.05-.146.03-.11.047-.224.047-.343 0-.71-.576-1.288-1.286-1.288z"/><path fill="#FFF" d="M15.922 27.76c-.11-.446-.522-.488-.522-.488h-.053c-.078 0-.148.052-.148.117v.008c.093 0 .226.068.226.068.013.005.027.01.04.02.098.047.208.134.294.294 0 0-.12-.175-.363-.274-.035-.015-.074-.028-.117-.038-.016-.004-.03-.008-.048-.01h-.004c-.058-.02-.058.032-.062.073-.002.03-.008.055-.035.046-.02-.007-.038.01-.056.037l-.166.237c-.014.02-.024.036-.03.052-.134.074-.062.118-.056.122.008.006.027 0 .027 0 .005.01.013.023.02.044 0 .007 0 .014-.002.02 0 .003 0 .004-.002.007-.012.046-.023.097-.002.13.002 0 .004.002.006.005 0 0 .002 0 .002.002l.006.005.013.008c.007.002.014.004.022.003.012 0 .027-.006.043-.02.025-.033.014-.086.002-.134l-.002-.006c-.013-.06.035-.08.035-.08s.012-.006.023.005c.006.005.012.015.01.032-.002 0-.002 0-.002.002-.005.02-.01.044 0 .06h.003v.002l.004.002.006.003.01.002c.005 0 .012-.003.02-.01.012-.014.006-.04 0-.06v-.003c-.004-.017.002-.026.007-.032 0 0 0 .002.003.003l.002.002c0 .002.002.002.004.003h.006c.005 0 .01 0 .015-.006.008-.007.007-.02.004-.032.005.003.01.01.01.024h-.002c-.004.017-.008.033 0 .044l.002.002s0 .002.002.002l.004.002h.007c.004 0 .01 0 .014-.006.01-.01.007-.028.002-.044-.002-.01 0-.017.003-.02 0 0 .02-.02.03.004.002.004.003.01 0 .018v.002c-.005.02-.01.043 0 .057l.002.002.003.002c.002 0 .004.002.006.004h.01c.005 0 .012-.002.018-.01.012-.012.007-.037 0-.058v-.002c-.005-.026.016-.035.016-.035l.08-.006c.196-.015.34-.03.44-.045.19-.04.173-.15.172-.16zm-.88.172c-.03.01-.06.006-.065-.01-.006-.017.014-.04.044-.05.03-.01.06-.005.065.01.005.017-.014.04-.044.05zm.23-.39c.044.006.075.032.07.055s-.042.036-.083.028c-.044-.007-.075-.032-.07-.055.003-.024.04-.036.083-.03zm.02.303c-.07.025-.136.015-.15-.022s.032-.087.1-.112.136-.013.148.024c.013.037-.03.087-.1.11zm.276.05c-.04.013-.08.008-.088-.015-.008-.022.02-.052.06-.067.04-.014.08-.008.09.015.006.022-.02.052-.062.066z"/></svg>