<svg xmlns="http://www.w3.org/2000/svg" width="29" height="29" viewBox="0 0 29 29"><path fill="#F0EBBE" d="M-.022-.4H29.61v29.816H-.02z"/><ellipse cx="15.568" cy="21.357" rx="5.861" ry="3.512"/><path fill="#E1BF9C" d="M15.492 18.2v11.216H9.408l-.15-.064c0-1 .103-1.847.278-2.56.856-3.592 3.448-3.904 3.448-3.904h.03c.024-.005.054-.01.08-.018.308-.085.517-.54.657-1.19.026-.11.048-.224.064-.35.034-.204.063-.423.085-.65l.038-.415c.055-.688.073-1.437.073-2.146.002 0 .82.08 1.482.08z"/><path fill="#F2D1AC" d="M21.748 29.352s-.055.022-.145.064h-6.11V18.2h.013c.66 0 1.484-.08 1.484-.08 0 .706.017 1.445.073 2.13l.038.404c.026.236.052.458.085.668v.003c.014.095.03.18.048.266.128.63.315 1.09.59 1.246.02.008.042.02.063.025.043.018.09.027.137.027 0 0 .043.004.12.02.395.086 1.692.48 2.615 2.06.568.96.99 2.36.99 4.385z"/><path opacity=".7" fill="#C09A80" d="M17.185 21.323v.004c-.15.24-.666.92-1.686.92h-.01c-.97-.005-1.532-.71-1.678-.915.034-.206.063-.424.086-.65l.038-.416c.474.12.986.192 1.536.2h.02c.56-.008 1.08-.085 1.567-.216.013.135.024.272.038.405.027.237.052.46.087.668z"/><path fill="#D3A789" d="M15.486 6.148c-6.35-.012-6.387 5.102-6.104 8.437-.437-.783-1.724-.493-1.62.76.103 1.2 1.923 1.744 1.897 1.61.52 2.72 3.512 4.228 5.826 4.442.016.002.033 0 .048.002V6.147h-.048z"/><path fill="#C09A80" d="M8.082 14.816c.318-.483.81-.276.932-.17.127.12.23.272.15.56-.045.16-.223.173-.18.417.047.274.182.292.258.356.075.06.17.108.218.225.045.116.054.24.028.345-.05.198-.353.04-.556-.047-.134-.058-.56-.4-.667-.516-.27-.29-.395-.85-.183-1.17z"/><path fill="#E0B89B" d="M15.517 6.148c6.35-.012 6.388 5.102 6.105 8.437.436-.783 1.724-.493 1.617.76-.103 1.2-1.92 1.744-1.897 1.61-.52 2.72-3.512 4.228-5.826 4.442-.016.002-.033 0-.05.002V6.147h.05z"/><path fill="#C09A80" d="M22.966 14.816c-.32-.483-.81-.276-.93-.17-.13.12-.23.272-.152.56.045.16.224.173.18.417-.048.274-.182.292-.258.356-.074.06-.17.108-.217.225-.048.116-.056.24-.03.345.05.198.354.04.557-.047.133-.058.56-.4.666-.516.27-.29.396-.85.183-1.17z"/><path fill="#E1BF9C" d="M15.453 7.595c-2.12 0-3.673.586-4.613 1.743-1.312 1.615-1.262 4.083-.777 5.855.148.54.224 2 .326 2.537.456 2.395 3.234 3.67 5.063 3.67h.05V7.596l-.05-.002z"/><path fill="#F2D1AC" d="M20.055 9.34c-.933-1.148-2.467-1.734-4.554-1.743V21.4c2.09-.022 4.587-1.42 5.016-3.67.103-.536.178-1.995.326-2.536.483-1.768.53-4.233-.787-5.853z"/><path fill="#C6696E" d="M16.57 19.235s-.48.514-1.07.514c-.592 0-1.043-.503-1.043-.503s.45-.08 1.043-.08c.59.002 1.07.068 1.07.068z"/><path fill="#D87373" d="M15.8 19c-.164 0-.298.103-.3.232-.005-.13-.138-.233-.304-.233-.168 0-.768.235-.768.235s.585.063.752.063c.166 0 .314.065.318-.06.002.126.123.078.29.078.166 0 .78-.08.78-.08s-.598-.237-.767-.237z"/><path fill="#8967AC" d="M22.244 26.527s-1.768-3.494-4.23-3.64c-.063-.004 1.83 2.776-.69 3.42-.623.16-1.242.215-1.818.193H15.5h-.008c-.576.022-1.194-.033-1.816-.192-2.523-.645-.628-3.425-.69-3.42-2.464.145-4.23 3.64-4.23 3.64l.78.264 1.102.372s-.385 1.005-.405 2.253H20.77c-.022-1.248-.406-2.253-.406-2.253l1.102-.372.778-.265z"/><path d="M21.077 17.99c-.025.46-.05.51.173.873.223.366.482.5.233.912-.248.412-.654.462-.63.824.025.366.47.534.396 1.02-.07.44-.778.902-.91.982.106-.077.563-.433.5-.88-.077-.51-.135-.536-.68-.825-.546-.292-.625-.418-.474-.83.147-.416.645-.45.27-.888-.37-.438-.588-.737-.49-1.004.102-.27-.063-.465.375-.98.275-.312.235-1.02.235-1.336 0-.318.443-1.843-.273-2.513-.13-.12-.35-.393-.615-.71-.216-.26-.465-.553-.713-.81-.26-.264-.49-.662-.65-1.007-.162-.338-.268-.62-.293-.683.01.074.056.4.09.658.01.095.02.18.023.242.047.635.442.98.565 1.075-.18-.104-.922-.55-1.22-.944-.124-.162-.213-.32-.274-.47-.28-.667-.072-1.21-.036-1.293-.058.084-.45.7-.89 1.105-.03.032-.067.06-.103.092-.472.398-1.292.88-1.4.944.064-.06.48-.433.767-.993.036-.06.065-.123.095-.19.094-.218.47-1.36.47-1.36-.193.322-.517.93-.956 1.526-.29.4-.636.794-1.02 1.1-.145.113-.34.268-.555.448-.78.645-1.865 1.617-1.962 2.15-.122.678.223 2.16.446 2.766.226.61.247.803 0 1.045-.25.242-.868.68-.768.897.097.22.472.58.396.874-.075.293-.89.99-.992 1.384-.18.695.895 1.286 1.02 1.352-.13-.042-1.583-.59-1.417-1.327.107-.48.024-.557-.25-.923-.272-.363-.67-.972-.298-1.334.374-.367.893-.78.77-1.19-.125-.413-1.454-3.27-1.454-4.28 0-.3.056-.847.185-1.506.1-.52.252-1.117.464-1.708.42-1.16 1.07-2.314 2.052-2.938 2.107-1.334 3.594-1.542 4.34-1.373.74.168 1.5-.13 1.697-.052.198.078 2.103.865 2.822 1.663.553.622 1.928 2.132 2.525 3.885.18.518.288 1.057.288 1.6 0 .058 0 .118-.004.178-.092 2.303-1.85 4.297-1.873 4.747z"/></svg>