<svg xmlns="http://www.w3.org/2000/svg" width="29" height="29" viewBox="0 0 29 29"><path fill="#EE837C" d="M-.264-.4H29.37v29.816H-.264z"/><path fill="#E1BF9C" d="M14.644 18.3v11.12h-6.03l-.15-.063c0-2.49.644-4.02 1.397-4.956 1.046-1.3 2.298-1.453 2.298-1.453h.03c.024-.004.054-.008.08-.018.304-.085.51-.535.65-1.18.025-.11.047-.224.063-.347.034-.204.065-.42.086-.645.013-.135.024-.272.038-.41.055-.684.072-1.424.072-2.13 0 .002.814.083 1.468.083z"/><path fill="#F2D1AC" d="M20.845 29.356s-.055.02-.145.063h-6.057V18.3h.014c.655 0 1.472-.08 1.472-.08 0 .7.016 1.434.07 2.11.013.138.025.272.04.404.024.233.05.454.083.662v.003c.013.093.03.177.047.263.127.622.312 1.08.583 1.232.02.01.042.02.063.025.043.02.09.026.136.026 0 0 1.32.156 2.38 1.56.718.946 1.313 2.45 1.313 4.85z"/><path opacity=".7" fill="#C09A80" d="M16.324 21.398v.004c-.147.238-.66.912-1.67.912h-.01c-.96-.004-1.518-.704-1.66-.908.033-.203.062-.42.083-.644l.038-.41c.47.117.978.19 1.523.198h.017c.558-.008 1.073-.084 1.557-.216.013.136.024.272.038.403.025.233.05.453.084.66z"/><path fill="#D3A789" d="M14.64 6.355c-6.295-.012-6.332 5.058-6.052 8.363-.432-.775-1.708-.488-1.604.755.1 1.19 1.905 1.728 1.88 1.597.516 2.693 3.482 4.19 5.776 4.402h.05V6.356h-.05z"/><path fill="#C09A80" d="M7.3 14.948c.316-.48.803-.273.923-.167.128.116.228.267.15.55-.046.16-.222.173-.18.416.048.273.18.29.257.353.074.06.168.108.215.223.046.116.055.237.028.343-.048.197-.35.04-.55-.047-.133-.06-.555-.397-.662-.512-.267-.286-.39-.84-.18-1.16z"/><path fill="#E0B89B" d="M14.67 6.355c6.296-.012 6.332 5.058 6.052 8.363.433-.775 1.71-.488 1.605.755-.102 1.19-1.905 1.728-1.88 1.597-.516 2.693-3.482 4.19-5.776 4.402h-.047V6.356h.048z"/><path fill="#C09A80" d="M22.055 14.948c-.315-.48-.803-.273-.923-.167-.127.116-.227.267-.15.55.046.16.223.173.18.416-.047.273-.18.29-.256.353-.075.06-.17.108-.216.223-.045.116-.054.237-.028.343.05.197.35.04.55-.047.134-.06.556-.397.662-.512.268-.286.392-.84.18-1.16z"/><path fill="#E1BF9C" d="M14.607 7.79c-2.103 0-3.64.58-4.572 1.728-1.3 1.6-1.25 4.047-.77 5.804.145.537.22 1.982.322 2.515.454 2.375 3.208 3.64 5.02 3.64l.05-.002V7.792l-.05-.002z"/><path fill="#F2D1AC" d="M19.17 9.52c-.925-1.14-2.446-1.72-4.515-1.73v13.684c2.07-.022 4.545-1.407 4.97-3.638.102-.532.177-1.978.324-2.515.477-1.75.526-4.193-.78-5.8z"/><path fill="#C6696E" d="M15.714 19.33s-.475.51-1.06.51-1.034-.5-1.034-.5.448-.078 1.034-.078 1.06.067 1.06.067z"/><path fill="#D87373" d="M14.955 19.094c-.166 0-.298.104-.3.23-.005-.126-.138-.23-.3-.23-.168 0-.762.234-.762.234s.58.06.746.06c.163 0 .31.067.313-.057.002.126.12.078.286.078.166 0 .773-.08.773-.08s-.592-.234-.758-.234z"/><path fill="#2C0F0F" d="M20.845 29.356s-.055.02-.145.063H8.613l-.148-.064c0-2.49.643-4.02 1.396-4.956.41.73 1.105 1.48 2.353 1.712.71.13 1.578.255 2.432.31 1.26.093 2.45-.114 3.102-.47.58-.317 1.29-.856 1.788-1.446.715.946 1.31 2.45 1.31 4.85z"/><path fill="#965458" d="M20.355 16.61c.12 0-.008-.71.396-1.198.403-.488 1.018-2.133 1.018-3.774 0-1.643-.525-3.103-1.896-4.655-1.37-1.553-3.386-2.307-3.386-2.307l.928.93s-.5-.755-2.293-1.36c-1.415-.477-2.332.055-2.332.055s.933-.035 1.216.413c.072.114.334.286.334.286s-.434-1.072-2.45-.184C9.875 5.703 9.91 7.293 8.51 7.78c-1.434.502-1.85-.14-1.85-.14s.623 1.125 1.73 1.128c.21 0 .196-.005.196-.005S8.17 9.97 8.09 10.868c-.08.918.172 1.546.25 3.264.067 1.468.432.715.865 1.797.145.36.152.77.152.77.16.042.582-.882.28-2.486-.198-1.042.775-4.99 3.124-4.22 1.44.47 1.8 1.43 2.875.577.927-.733 2.222-1.155 3.188-.574.967.58 1.512 1.887 1.344 3.972-.215 2.66.188 2.64.188 2.64z"/><path fill="#F6F0D7" d="M17.047 23.073c-.185-.254-.31-.548-.26-.848.048-.3-.443-.288-.443-.288s.178.24.012.405c-.167.167-.79.383-1.722.383-.934 0-1.322-.118-1.532-.236-.21-.12-.405-.382-.12-.635 0 0-.24-.025-.507.165s.17.33.012.577c-.157.244-.118.288-.418.572-.302.284-.01.453.405.67.27.143.498.255.775.336.03.642.632 1.155 1.372 1.155.738 0 1.338-.51 1.37-1.15.36-.106.678-.282 1.058-.57.455-.344.182-.284-.003-.537zm-2.424 1.91c-.465 0-.842-.376-.842-.842s.378-.842.843-.842.84.377.84.843-.376.844-.84.844z"/></svg>