<svg xmlns="http://www.w3.org/2000/svg" width="29" height="29" viewBox="0 0 29 29"><path fill="#FFF" d="M-.176-.5H29.45v29.953H-.176z"/><path fill="#191919" d="M16.966 12.032c.253.848.544 1.818 1.087 2.788.544.97 2.195 2.217 2.253 3.546.123 2.853-3.92 4.21-5.55 4.694s-2.174.94-2.355 1.644-.03 1.468-.03 1.468-1.374-.75-1.762-1.326c-.833-1.235.08-2.076.08-2.076s.336.29-.063.945-.398 1.236-.254 1.406c.147.17.653.704.653.704s-2.52-.715-2.028-2.763c.084-.35.313-.093 0 0-.7.21-.57 1.366-.57 1.366s-1.707-2.212 1.753-3.464c.33-.12 2.112-.56 2.296-2.034.103-.817-.495-.89-.604-1.887-.142-1.29 1.71-1.02 2.42-2.237.136-.23-.533-.362 0-.992.647-.76.884-.7 1.807-1.147.923-.45.87-.63.87-.63z"/><path fill="#191919" d="M13.125 12.27c-.252.848-.543 1.817-1.086 2.787-.544.97-2.196 2.217-2.253 3.546-.124 2.854 3.918 4.21 5.55 4.694s2.173.533 2.354 1.236c.183.704.033 1.876.033 1.876s1.373-.752 1.76-1.327c.834-1.235-.078-2.077-.078-2.077s-.337.29.06.945c.4.655.4 1.237.255 1.406-.145.17-.65.703-.65.703s2.518-.715 2.027-2.764c-.084-.35-.313-.094 0 0 .7.21.57 1.365.57 1.365s1.707-2.21-1.753-3.463c-.33-.12-2.112-.56-2.296-2.033-.103-.817.495-.89.604-1.888.14-1.292-1.71-1.02-2.42-2.238-.136-.23.533-.363 0-.992-.646-.76-.884-.7-1.807-1.148-.923-.447-.87-.63-.87-.63z"/><path fill="#E1BF9C" d="M14.846 18.194V29.29H8.813l-.148-.064c0-4.053 1.714-5.55 2.807-6.096.51-.253.887-.3.887-.3h.03c.024-.004.053-.01.08-.018.304-.084.51-.533.65-1.176.024-.11.046-.223.062-.347.034-.204.064-.42.085-.644l.038-.41c.055-.68.072-1.422.072-2.124 0 .002.813.082 1.47.082z"/><path fill="#F2D1AC" d="M21.045 29.227s-.055.02-.143.064h-6.057V18.195h.012c.656 0 1.473-.08 1.473-.08 0 .698.017 1.43.07 2.106.014.136.025.27.04.402.024.232.05.453.084.66v.004c.013.093.03.178.046.262.127.622.313 1.08.584 1.23.02.01.042.022.063.026.042.017.088.026.136.026 0 0 .3.034.727.224 1.08.48 2.965 1.917 2.965 6.173z"/><path opacity=".7" fill="#C09A80" d="M16.524 21.284v.003c-.148.237-.66.91-1.67.91h-.01c-.96-.004-1.518-.702-1.662-.905.034-.204.062-.42.084-.643.014-.136.025-.272.04-.41.468.117.976.19 1.52.198h.018c.56-.008 1.074-.084 1.557-.216l.04.402c.024.232.05.453.084.66z"/><path fill="#D3A789" d="M14.84 6.272c-6.296-.01-6.332 5.047-6.053 8.346-.432-.774-1.708-.486-1.604.753.1 1.19 1.905 1.726 1.88 1.595.515 2.688 3.482 4.18 5.776 4.393h.047V6.273h-.047z"/><path fill="#C09A80" d="M7.5 14.847c.316-.48.803-.272.922-.167.127.115.23.267.15.55-.045.16-.222.172-.178.414.047.272.18.29.256.352.074.06.168.11.215.224.045.115.054.237.028.342-.05.197-.35.04-.552-.046-.13-.058-.553-.396-.66-.51-.266-.287-.39-.84-.18-1.16z"/><path fill="#E0B89B" d="M14.87 6.272c6.297-.01 6.333 5.047 6.054 8.346.43-.774 1.708-.486 1.604.753-.102 1.19-1.906 1.726-1.88 1.595-.516 2.688-3.482 4.18-5.777 4.393h-.047V6.273h.048z"/><path fill="#C09A80" d="M22.255 14.847c-.315-.48-.803-.272-.923-.167-.127.115-.228.267-.15.55.045.16.223.172.18.414-.047.272-.18.29-.257.352-.074.06-.168.11-.216.224-.045.115-.054.237-.028.342.05.197.35.04.55-.046.134-.058.556-.396.662-.51.268-.287.39-.84.18-1.16z"/><path fill="#E1BF9C" d="M14.807 7.704c-2.103 0-3.642.58-4.573 1.725-1.3 1.597-1.25 4.038-.77 5.79.145.537.22 1.98.32 2.51.454 2.37 3.21 3.632 5.022 3.632l.05-.002V7.706l-.05-.002z"/><path fill="#F2D1AC" d="M19.37 9.43c-.925-1.136-2.445-1.715-4.514-1.724V21.36c2.07-.02 4.545-1.404 4.97-3.63.102-.53.177-1.974.323-2.51.477-1.747.525-4.186-.78-5.79z"/><path fill="#C6696E" d="M15.914 19.22s-.475.507-1.06.507-1.034-.497-1.034-.497.447-.077 1.033-.077 1.06.066 1.06.066z"/><path fill="#D87373" d="M15.154 18.984c-.165 0-.298.104-.3.23-.004-.127-.137-.23-.3-.23-.167 0-.762.235-.762.235s.58.06.745.06.312.066.315-.058c.003.125.122.077.286.077.167 0 .774-.08.774-.08s-.592-.236-.758-.236z"/><path fill="none" d="M10.858 26.695l.002.004"/><path fill="#E1BF9C" d="M9.894 24.622c-.055.002-.09.01-.09.01-.28.738 1.054 2.063 1.054 2.063-.358-.694-.692-1.408-.964-2.073z"/><path fill="#E1BF9C" d="M9.894 24.622c.27.665.605 1.38.964 2.073.09-1.95-.695-2.083-.964-2.073z"/><path fill="#191919" d="M20.424 25.597c-.267-.634-.592-1.125-.932-1.5-.49-.547-1.006-.864-1.412-1.042-.507.843-1.548 1.882-2.453 2.706-2.425 1.663-3.406.047-3.434.002-.45-.895-.794-1.75-1.02-2.47-.42.258-.893.65-1.312 1.256l.032.075c.27-.01 1.054.124.964 2.073l.002.004-.002-.004.008 2.57 1.526.025H20.9c.09-.042.144-.063.144-.063 0-1.557-.25-2.737-.62-3.63z"/><path fill="#191919" d="M20.982 11.23c-.41-.584-.205-1.407-.273-2.127-.07-.722-1.684-2.645-2.61-3.434-.927-.79-2.952-.688-3.98-.688s-1.613.482-2.06.825c-.445.342-.55.24-1.1.342-.548.103-.892.343-1.887 2.128-.995 1.784-.412 2.71-.322 4.22.09 1.513-.25 2.86-.25 3.517 0 2.416 1.61 4.418 1.363 6.85-.164 1.605-.824 2.85-.824 2.85s.754-1.1 1.063-2.128c.31-1.03.205-2.883-.31-4.36-.43-1.232-.356-2.66-.14-3.854.01-.064.022-.128.035-.19.032-.168.067-.33.104-.484.01-.047.023-.096.036-.145.028-.118.06-.24.095-.367.017-.02.03-.044.04-.074.013-.052.02-.098.02-.14.016-.054.03-.108.048-.163-.034.312-.046.63-.027.948 0 .016 0 .033.002.05.01.108.013.203.034.32l.033.212.012.078.037.162c.034.152.07.305.11.443.106.388.254.75.382 1.09.124.34.252.663.35.974.088.31.168.605.21.884.023.14.036.276.045.405.015.13.02.253.018.37.01.233-.01.44-.018.61-.035.34-.057.536-.057.536l.055-.13c.033-.087.094-.21.146-.377.045-.168.12-.37.154-.614.047-.243.08-.522.073-.83.01-.425-.066-.9-.186-1.384-.042-.173-.09-.347-.142-.52l-.038-.13c-.088-.28-.17-.566-.25-.85l-.06-.218c-.052-.182-.083-.352-.118-.526l-.04-.29c-.015-.077-.014-.18-.023-.265-.02-.227-.022-.455-.01-.683.007-.138.018-.274.036-.41.042-.36.108-.72.196-1.065.173-.69.394-1.334.577-1.892.084-.25.16-.482.227-.693.024.238.104.542.328.775 1.273 1.323 2.364 1.49 3.277 1.576.01 0 .02 0 .028.002.01 0 .018.002.027.003.398.038.763.063 1.093.17 1.858.595 2.17 2.67 3.288 2.81.084.01.17.01.264 0 .184-.026.356-.112.515-.236.454-.354.793-1.03.924-1.568.022-.095.04-.185.05-.27.006-.055.01-.11.01-.157.003-.688-.17-1.308-.582-1.89z"/></svg>