<svg xmlns="http://www.w3.org/2000/svg" width="29" height="29" viewBox="0 0 29 29"><path fill="#EE837C" d="M-.092-.5h29.626v29.953H-.092z"/><path fill="#E1BF9C" d="M15.055 17.818V29.29H8.818c-.1-.048-.153-.066-.153-.066 0-1.706.293-2.98.717-3.918.7-1.553 1.754-2.218 2.437-2.498.393-.166.664-.197.664-.197h.03c.026-.002.057-.007.083-.016.314-.092.53-.55.674-1.216.027-.118.05-.232.066-.358.035-.21.065-.433.087-.67.015-.134.026-.274.04-.418.057-.71.074-1.475.074-2.196 0 0 .84.082 1.518.082z"/><path fill="#F2D1AC" d="M21.467 29.225s-.057.018-.148.066h-6.265V17.82h.014c.677 0 1.52-.083 1.52-.083 0 .72.018 1.478.074 2.178l.04.416c.026.24.052.467.087.677v.01c.015.094.032.182.05.27.13.643.323 1.115.604 1.272.02.008.043.02.064.026.045.017.093.025.14.025 0 0 1.93.233 3.045 2.573.453.954.774 2.257.774 4.042z"/><path opacity=".7" fill="#C09A80" d="M16.79 21.01v.005c-.152.245-.68.94-1.728.94h-.008c-.992-.004-1.57-.726-1.72-.936.036-.21.066-.434.088-.666l.04-.424c.484.123 1.01.197 1.574.206h.018c.578-.008 1.11-.087 1.61-.223l.038.415c.028.24.054.468.09.682z"/><path fill="#D3A789" d="M15.05 5.49c-6.51-.013-6.547 5.217-6.257 8.628-.447-.8-1.767-.503-1.658.778.104 1.228 1.97 1.783 1.943 1.648.53 2.78 3.6 4.323 5.972 4.542.017 0 .034 0 .05.002v-15.6c-.017.002-.034 0-.05 0z"/><path fill="#C09A80" d="M7.46 14.355c.328-.495.83-.28.955-.172.132.12.236.276.154.57-.047.164-.23.177-.185.427.05.28.187.3.265.364.076.063.174.113.223.232.047.118.056.245.03.353-.052.202-.362.04-.57-.05-.138-.06-.574-.408-.685-.527-.277-.297-.406-.868-.187-1.198z"/><path fill="#E0B89B" d="M15.082 5.49c6.51-.013 6.547 5.217 6.257 8.628.446-.8 1.767-.503 1.658.778-.104 1.228-1.97 1.783-1.943 1.648-.532 2.78-3.6 4.323-5.973 4.542-.016 0-.034 0-.05.002v-15.6c.017.002.034 0 .05 0z"/><path fill="#C09A80" d="M22.717 14.355c-.326-.495-.83-.28-.954-.172-.132.12-.234.276-.154.57.045.164.228.177.184.427-.05.28-.187.3-.265.364-.078.063-.176.113-.225.232-.046.118-.055.245-.028.353.05.202.36.04.57-.05.137-.06.572-.408.683-.527.277-.297.406-.868.187-1.198z"/><path fill="#E1BF9C" d="M15.016 6.97c-2.174 0-3.765.6-4.73 1.783-1.343 1.652-1.292 4.176-.796 5.988.15.555.23 2.047.334 2.596.47 2.45 3.316 3.755 5.19 3.755h.052V6.97h-.05z"/><path fill="#F2D1AC" d="M19.733 8.755c-.956-1.175-2.528-1.774-4.667-1.784v14.12c2.14-.023 4.7-1.454 5.14-3.755.104-.548.182-2.04.334-2.595.495-1.806.543-4.327-.807-5.985z"/><path fill="#C6696E" d="M16.16 18.875s-.49.526-1.098.526c-.604 0-1.068-.513-1.068-.513s.464-.08 1.068-.08c.608 0 1.098.068 1.098.068z"/><path fill="#D87373" d="M15.375 18.633c-.172 0-.31.107-.312.24-.002-.133-.14-.24-.31-.24s-.786.243-.786.243.6.063.77.063c.172 0 .323.066.325-.06.004.127.127.078.297.078.172 0 .8-.082.8-.082s-.613-.243-.785-.243z"/><path fill="#FFF" d="M19.887 23.284c-.84-.402-1.836-.656-1.782-.536.544.765.342 1.406.252 2.504-.14 1.707-1.25-1.042-3.312-1.062-2.063.02-3.173 2.77-3.312 1.062-.09-1.1-.292-1.74.252-2.504.054-.12-.943.133-1.783.536-.84.402-1.524.95-1.524.95s.63.208.887.982c.128.384.208 1.084.253 1.73.09 1.313.75 1.903.71 2.345H19.56c-.04-.44.62-1.03.71-2.343.045-.647.124-1.347.256-1.73.258-.775.887-.982.887-.982s-.685-.55-1.526-.95z"/><path fill="#965458" d="M13.16 21.45c.402.138 1.174.41 1.93.383.758-.03 1.97-.276 1.97-.276s.55.64.087.903c-.463.263-3.37.656-4.3-.047-.15-.113.313-.963.313-.963z"/><path fill="#5C4C52" d="M19.19 9.26c-.506.9-.365 1.916-2.08 2.582-1.715.667-2.485.85-4.356 1.654-4.24 1.823-2.062 6.044-2.062 6.044s-1.162-1.086-1.584-2.217c-.422-1.13-2.047-6.057 0-9.95 1.123-2.135 3.204-2.628 5.03-2.772 1.827-.145 3.13.008 4.45 1.168.287.252 1.113.31 2.02.923 2.023 1.376 1.858 3.403 1.946 4.697.113 1.652-.132 2.833-.525 3.964-.395 1.13-2.78 4.472-2.78 4.472s1.855-4.08.825-6.733c-.604-1.553-1.684-1.465-1.73-2.068-.048-.602.844-1.76.844-1.76z"/></svg>