<svg xmlns="http://www.w3.org/2000/svg" xmlns:xlink="http://www.w3.org/1999/xlink" width="29" height="29" viewBox="0 0 29 29"><path fill="#607298" d="M-.098-.284h29.71v29.708H-.1z"/><path fill="#E2BF9C" d="M14.55 17.712v11.71H8.18c-.103-.046-.156-.068-.156-.068 0-1.758.304-3.057.742-4.022 1.133-2.486 3.155-2.728 3.155-2.728.39 0 .64-.5.804-1.258.026-.117.05-.238.068-.368.036-.214.066-.44.088-.678l.04-.433c.06-.72.077-1.5.077-2.24 0 0 .857.085 1.553.085"/><path fill="#F2D1AC" d="M21.092 29.354s-.06.022-.152.068h-6.39v-11.71h.01c.69 0 1.555-.085 1.555-.085 0 .735.018 1.51.074 2.223l.04.424c.026.246.052.477.09.696v.004c.018.1.03.188.05.277.164.808.423 1.353.825 1.353 0 0 2.058.246 3.182 2.79.424.96.715 2.242.715 3.96"/><defs><path id="a" d="M12.794 19.852h3.526v2.084h-3.526z"/></defs><clipPath id="b"><use xlink:href="#a" overflow="visible"/></clipPath><path clip-path="url(#b)" fill="#C09A80" d="M16.32 20.972v.004c-.156.25-.697.96-1.763.96h-.01c-1.014-.005-1.602-.74-1.754-.956.036-.215.067-.443.088-.68.016-.142.028-.286.042-.433.496.127 1.03.202 1.608.21h.017c.59-.008 1.135-.09 1.643-.227.015.143.028.285.04.422.03.25.054.482.09.7"/><path fill="#D3A789" d="M14.544 5.13c-6.644-.013-6.682 5.325-6.387 8.807-.457-.817-1.805-.513-1.694.795.106 1.252 2.01 1.82 1.984 1.683.543 2.836 3.676 4.412 6.097 4.636h.05V5.13h-.05"/><path fill="#C09A80" d="M6.797 14.178c.333-.505.848-.287.974-.176.136.12.24.282.16.582-.048.168-.234.18-.188.436.05.288.19.307.27.373.078.063.178.113.228.236.048.12.057.25.03.36-.052.207-.37.04-.582-.05-.14-.06-.584-.417-.697-.538-.284-.302-.416-.886-.193-1.224"/><path fill="#E0B89B" d="M14.576 5.13c6.646-.013 6.683 5.325 6.388 8.807.456-.817 1.805-.513 1.692.795-.105 1.252-2.01 1.82-1.984 1.683-.544 2.836-3.674 4.412-6.096 4.636h-.05V5.13h.05"/><path fill="#C09A80" d="M22.37 14.178c-.334-.505-.848-.287-.974-.176-.135.12-.24.282-.16.582.048.168.234.18.19.436-.05.288-.19.307-.27.373-.08.063-.18.113-.23.236-.047.12-.057.25-.03.36.054.207.37.04.582-.05.142-.06.586-.417.698-.538.286-.302.417-.886.193-1.224"/><path fill="#E2BF9C" d="M14.51 6.64c-2.22 0-3.844.612-4.828 1.82-1.373 1.687-1.32 4.263-.814 6.112.156.565.235 2.09.343 2.648.48 2.503 3.385 3.833 5.3 3.833l.052-.002V6.64h-.053"/><path fill="#F2D1AC" d="M19.324 8.46c-.976-1.198-2.58-1.81-4.764-1.82v14.41c2.185-.02 4.796-1.48 5.246-3.83.105-.56.187-2.083.34-2.648.505-1.843.555-4.417-.822-6.11"/><path fill="#C7696E" d="M15.68 18.708s-.5.54-1.12.54c-.62 0-1.09-.528-1.09-.528s.47-.08 1.09-.08c.62 0 1.12.068 1.12.068"/><path fill="#D87373" d="M14.876 18.46c-.174 0-.312.11-.315.245-.004-.135-.14-.244-.316-.244s-.803.25-.803.25.612.063.787.063.33.068.333-.062c.004.132.13.08.303.08.176 0 .817-.082.817-.082s-.628-.247-.804-.247"/><path fill="#965458" d="M21.117 29.354s-.057.022-.153.068H8.154l-.156-.068c0-1.765.304-3.07.743-4.038.714-.427 2.232-.23 3.69.438 1.43.66 1.9.983 2.094 1 .01 0 .02 0 .027-.005.21-.04.694-.362 2.07-.996 1.525-.7 3.116-.88 3.78-.375.426.962.717 2.248.717 3.974"/><path fill="#070808" d="M16.572 22.14c-.143 0-.26.117-.26.26 0 .055.022.104.052.146-.018-.004-.033-.01-.05-.01-.146 0-.262.115-.262.258 0 .026.007.05.015.073-.03-.01-.06-.018-.09-.018-.146 0-.26.115-.26.258 0 .014.005.025.007.038-.038-.022-.08-.038-.127-.038-.145 0-.26.118-.26.26 0 .015.005.026.007.04-.038-.023-.08-.04-.128-.04-.092 0-.17.05-.215.122-.098-.144-.263-.24-.45-.24-.178 0-.334.086-.434.218-.043-.083-.126-.143-.226-.143-.05 0-.09.017-.13.04.003-.014.01-.025.01-.04 0-.143-.117-.26-.263-.26-.047 0-.088.017-.126.04.003-.014.01-.025.01-.04 0-.142-.118-.26-.262-.26-.032 0-.062.01-.092.02.008-.024.016-.047.016-.072 0-.144-.117-.26-.26-.26-.018 0-.033.007-.05.01.028-.042.05-.09.05-.146 0-.144-.116-.26-.26-.26-.144 0-.26.116-.26.26 0 .143.116.26.26.26.02 0 .034-.007.052-.01-.03.04-.05.09-.05.145 0 .143.114.26.258.26.032 0 .062-.007.092-.02-.007.024-.015.047-.015.073 0 .143.115.26.258.26.048 0 .09-.017.128-.04-.002.014-.008.026-.008.04 0 .144.116.26.26.26.047 0 .09-.016.13-.038-.003.013-.01.025-.01.04 0 .142.118.258.262.258.043 0 .08-.013.116-.03.01.29.25.523.544.523.28 0 .51-.215.537-.49.038.022.08.038.128.038.144 0 .26-.115.26-.26 0-.013-.007-.025-.01-.04.04.024.083.04.13.04.144 0 .26-.116.26-.258 0-.014-.005-.025-.007-.038.038.022.08.038.127.038.145 0 .26-.118.26-.26 0-.026-.008-.05-.015-.073.03.01.06.02.092.02.144 0 .26-.118.26-.26 0-.057-.022-.105-.052-.147.017.003.033.01.05.01.145 0 .262-.115.262-.258s-.116-.26-.26-.26zM20.973 8.988c-.078-.235-.16-.452-.245-.663v-.09c0-.298-.126-.546-.34-.788.154-.207.137-.498-.052-.682.09-.014.178-.056.245-.127.165-.172.156-.444-.015-.608l-.147-.14c.052-.028.1-.064.146-.11.162-.173.195-.406.075-.522l-.07-.063c.046-.02.09-.052.13-.093.12-.126.144-.295.055-.38L19.697 3.72c-.09-.084-.256-.05-.375.075-.04.042-.067.088-.086.134l-.05-.05c-.123-.114-.354-.067-.517.105-.045.047-.078.1-.104.15l-.066-.063c-.172-.164-.444-.156-.607.017-.068.07-.105.163-.114.255-.21-.165-.515-.148-.702.05-.05.05-.084.108-.107.17-.38-.245-.74-.352-1.238-.335 0 0-.002.007-.008.018-.443-.097-2.834-.58-4.257-.045-1.572.59-2.86 1.606-3.77 4.33-.642 1.93-.455 3.61-.23 4.765.037.187.075.36.11.518.054.246.103.458.135.627l.033.154c.04.19.095.38.157.567.914 2.752 3.916 5.277 3.916 5.277s-1.548-1.877-1.85-2.68l-.017-.047c-.233-.63-.566-1.684-.566-3.223 0-.365.05-.666.123-.916.194-.66.567-.952.71-1.042-.034.106-.084.37-.148 1-.142 1.347.597 2.388.597 2.388s-.936-1.75.56-3.054c.477-.415.874-.85 1.194-1.244v.003c-.375 1.032.483 3.436.483 3.436s-.12-2.86.662-3.31c.35-.2.64-.378.89-.54l.062-.04.067-.046c1.008-.68 1.242-1.11 1.452-1.8.037-.12.06-.232.072-.34l1.736 2.55c.08.11.214.298.368.54.45.708 1.073 1.865 1.073 2.872 0 .294-.008.552-.02.78-.06.99-.22 1.37-.22 1.37s.194-.004.522-.263c.277-.22.652-.624 1.086-1.372.1-.168.2-.354.305-.56l.01-.023c.14-.278.278-.698.38-1.228.026-.144.05-.296.068-.455.142-1.115.096-2.588-.443-4.207z"/></svg>