<svg xmlns="http://www.w3.org/2000/svg" xmlns:xlink="http://www.w3.org/1999/xlink" width="29" height="29" viewBox="0 0 29 29"><path fill="#F6F0D7" d="M-.512-.285h29.707v29.71H-.512z"/><path fill="#2C0F0F" d="M20.13 16.36c.588.2 1.09.564 1.217 1.295.124.726.374 1.755-.212 2.748-.585.995-1.662 2.38-3.73 2.38-.837 0-2.216-.557-2.51-1.186-.292-.632-.544-.83-.502-1.327.043-.498 2.597-4.34 3.224-4.34.63.002 2.514.43 2.514.43"/><path fill="#E2BF9C" d="M14.132 17.712v11.71H7.766c-.102-.047-.156-.067-.156-.067 0-3.915 1.516-5.573 2.658-6.27.687-.414 1.24-.482 1.24-.482.39 0 .637-.5.803-1.258.027-.116.05-.24.066-.368.036-.213.07-.44.092-.676l.04-.433c.057-.72.075-1.5.075-2.24 0-.002.858.085 1.55.085"/><path fill="#F2D1AC" d="M20.677 29.354s-.058.02-.152.066h-6.393V17.712h.014c.692 0 1.553-.086 1.553-.086 0 .735.018 1.51.075 2.223l.04.423c.027.246.053.478.088.697v.004c.014.098.03.187.05.277.166.807.426 1.352.827 1.352 0 0 .718.084 1.54.684 1.09.796 2.357 2.487 2.357 6.068"/><defs><path id="a" d="M12.378 19.85h3.527v2.085h-3.527z"/></defs><clipPath id="b"><use xlink:href="#a" overflow="visible"/></clipPath><path clip-path="url(#b)" fill="#C09A80" d="M15.905 20.97v.004c-.157.25-.695.96-1.762.96h-.01c-1.013-.003-1.603-.74-1.753-.956.033-.213.066-.442.09-.678.013-.142.024-.286.038-.434.497.127 1.032.203 1.608.21h.017c.59-.008 1.134-.088 1.643-.226.013.143.026.286.04.422.028.25.055.48.09.698"/><path fill="#D3A789" d="M14.13 5.13c-6.644-.015-6.683 5.324-6.388 8.806-.456-.818-1.803-.513-1.692.794.105 1.254 2.01 1.82 1.985 1.683.543 2.836 3.674 4.413 6.095 4.638h.05V5.13h-.05"/><path fill="#C09A80" d="M6.383 14.178c.335-.506.85-.288.975-.177.135.124.24.283.158.583-.047.168-.233.182-.188.436.05.288.19.306.27.372.08.063.18.113.228.235.048.12.057.25.03.362-.05.206-.368.04-.58-.05-.142-.06-.586-.417-.698-.54-.287-.3-.417-.885-.195-1.222"/><path fill="#E0B89B" d="M14.162 5.13c6.644-.015 6.683 5.324 6.388 8.806.456-.818 1.802-.513 1.69.794-.105 1.254-2.01 1.82-1.982 1.683-.545 2.836-3.675 4.413-6.096 4.638h-.05V5.13h.05"/><path fill="#C09A80" d="M21.955 14.178c-.334-.506-.847-.288-.975-.177-.134.124-.24.283-.156.583.047.168.233.182.187.436-.047.288-.187.306-.268.372-.08.063-.177.113-.227.235-.048.12-.057.25-.03.362.05.206.368.04.58-.05.14-.06.585-.417.698-.54.284-.3.413-.885.192-1.222"/><path fill="#E2BF9C" d="M14.096 6.64c-2.22 0-3.843.612-4.827 1.818-1.374 1.688-1.32 4.265-.813 6.114.153.565.232 2.09.34 2.647.48 2.5 3.386 3.832 5.3 3.832l.05-.002V6.64h-.05"/><path fill="#F2D1AC" d="M18.91 8.46c-.977-1.2-2.582-1.81-4.765-1.82v14.41c2.185-.023 4.798-1.48 5.246-3.83.107-.56.188-2.084.342-2.648.506-1.845.556-4.417-.823-6.112"/><path fill="#422326" d="M15.254 18.843s-.502.54-1.12.54c-.616 0-1.09-.528-1.09-.528s.474-.08 1.09-.08c.618 0 1.12.068 1.12.068"/><path fill="#5B3638" d="M14.452 18.595c-.175 0-.313.11-.318.243-.002-.134-.143-.243-.315-.243-.18 0-.805.248-.805.248s.61.066.788.066c.173 0 .327.067.33-.063.004.13.13.08.304.08.176 0 .817-.084.817-.084s-.627-.248-.802-.248"/><path fill="#121212" d="M13.02 27.338l2.813-.895"/><path fill="#F6F0D7" d="M15.82 26.398l.034.107-2.818.88-.034-.108z"/><path fill="#121212" d="M15.244 27.338l-2.812-.895"/><path fill="#F6F0D7" d="M12.45 26.39l2.814.894-.034.107-2.815-.892z"/><path fill="#121212" d="M12.35 26.443l4.66-1.485"/><path fill="#F6F0D7" d="M16.99 24.9l.034.106-4.657 1.495-.034-.106z"/><path fill="#121212" d="M15.916 26.443l-4.673-1.485"/><path fill="#F6F0D7" d="M11.258 24.904l4.672 1.487-.034.108-4.672-1.487z"/><path fill="#121212" d="M11.404 25.2l6.636-2.03"/><path fill="#F6F0D7" d="M18.017 23.094l.033.106-6.62 2.075-.034-.106z"/><path fill="#121212" d="M16.916 25.2l-6.644-2.03"/><path fill="#F6F0D7" d="M10.288 23.12l6.645 2.027-.033.107-6.645-2.027z"/><path fill="#4A494A" d="M20.47 16.404v1.258"/><path fill="#4C4C4C" d="M20.412 16.406h.114v1.256h-.114z"/><path fill="#FFF" d="M20.92 17.896c0-.227-.202-.413-.45-.413-.25 0-.45.186-.45.413 0 .166.106.307.26.37-.04.044-.068.098-.068.16 0 .13.115.235.26.235.142 0 .258-.105.258-.234 0-.062-.027-.116-.068-.16.15-.064.257-.204.257-.37"/><path d="M20.374 17.88c0 .063-.052.114-.116.114-.062 0-.115-.05-.115-.114s.053-.116.115-.116c.064 0 .116.052.116.116M20.792 17.88c0 .063-.052.114-.115.114-.064 0-.116-.05-.116-.114s.053-.116.117-.116c.063 0 .115.052.115.116M20.47 18.213h-.128l.064-.11.064-.11.063.11.064.11M20.342 18.325h.255v.112h-.255z"/><path fill="#3D3D3D" d="M20.715 16.333c0 .136-.11.245-.245.245-.137 0-.245-.11-.245-.245 0-.136.108-.245.245-.245.135 0 .245.11.245.245"/><path fill="#2C0F0F" d="M7.23 8.847c.115-.85.315-1.773.622-2.456.684-1.496 2.09-2.133 4.314-3.038 1.792-.73 2.553-.463 4.202-.046.06-.206.162-.39.31-.537.744-.744 2.327-.364 3.538.848 1.098 1.097 1.51 2.498 1.026 3.305.253.63.4 1.222.466 1.648l.04.277c.27 1.985.014 2.803-.213 3.247-.103.212-.203.338-.234.47-.117.47-.248.624-.484 1.12-.153.137-.348.323-.47.648-.217.56-.298.465-.298.465s.303-1.976.333-2.703c.007-.04.007-.078.007-.11 0-.352-.162-2.12-1.338-3.137-.057-.05-.114-.1-.178-.145-.99-.737-2.678-.424-2.862-.424-.037 0-.42.293-.973.57-.533.27-1.22.524-1.9.492-4.214-.213-5.1 2.042-5.194 2.514.005.077.014.158.02.24.05.583.112 1.262.157 1.718.076.542.145.985.145.985s-.086.095-.3-.465c-.103-.275-.256-.447-.392-.58-.024-.306-.313-1.102-.353-1.188-.036-.072-.073-.25-.102-.47-.048-.348-.08-.796-.08-1.072 0-.25.04-1.157.19-2.175z"/><path fill="#27170F" d="M18.02 23.085c-.28.674-.66 1.348-1.176 1.953-1.42 1.65-2.628 2.543-2.72 2.61-.09-.067-1.29-.96-2.692-2.61-.513-.604-.888-1.28-1.164-1.953-1.143.697-2.658 2.354-2.658 6.27 0 0 .055.02.156.066H20.544c.103-.045.158-.065.158-.065 0-3.916-1.53-5.573-2.682-6.27"/></svg>