<svg xmlns="http://www.w3.org/2000/svg" xmlns:xlink="http://www.w3.org/1999/xlink" width="29" height="29" viewBox="0 0 29 29"><path fill="#F8FBF5" d="M-.105-.292h29.71v29.708H-.106z"/><path fill="#7B532D" d="M8.033 18.215c.027.057 1.294 1.58 1.196 3.168-.036.592-.49 1.27-.49 1.27s.965-.584 1.02-1.633c.132-2.348-1.132-3.704-1.132-3.704l-.595.9z"/><path fill="#7B532D" d="M9.542 18.758c.027.055 1.296 1.576 1.198 3.166-.037.592-.488 1.27-.488 1.27s.962-.584 1.02-1.63c.13-2.352-1.134-3.707-1.134-3.707l-.596.9z"/><path fill="#563825" d="M14.326 22.256c-1.264.104-1.896.808-2.173.365-.276-.444-.982-1.016-1.234-1.616-.253-.6-.555-1.405-.555-1.405s-.3.056-.146.968c.108.664.608.943.608.943s-.824-.113-1.094-.895c-.137-.397-.146-1.16-.297-1.708-.152-.547-.89-1.185-.89-1.185s.295.454.065 1.3c-.074.276-.523 1.23-.12 1.708.404.478 1.025.39 1.025.39s-.945.328-1.425-.14c-.478-.47-.706-.427-.756-1.06-.05-.634.05-.868-.15-1.467-.2-.6-.633-1.693-.633-1.693s1.235 1.19.52 2.45c-.365.642-1.353.615-1.258.542 0 0 1.97-.264.192-2.54-.43-.548.11-1.398-.167-2.336-.276-.938-.214-2 .252-2.963.31-.643.58-1.642 1.007-3.102.43-1.457 1.75-2.12 2.43-3.19.682-1.067.606-1.37 1.463-1.657.86-.286.783-.338 1.767-.338s2.195.52 2.195.52.354-.33.34-.477c-.038-.488-.34-.877-.34-.877s.73.667.808.782c.224.347.15.652.15.652s.15-.547.883-.547c.73 0 .983-.08 1.563.18.58.262 1.084.705 1.74 1.175.655.468 1.16.625 1.666 1.277.503.65 1.132 1.377 1.307 2.004.178.625-.02 1.46-.02 2.216 0 .757.013 1.577.266 2.128.25.554-.147 1.363.383 1.292.42-.056.466-.272.466-.272s-.22.763-.958.436c-.322-.143-.537-.794-.537-.794s.67.76.704 1.334c.094 1.577-.777 1.83-.67 3.627.022.37.05.764.594.546.23-.09.345-.23.345-.23s-.58.71-1.083.287c-.318-.268-.55-2.175-.55-2.175s.584.89.094 2.23c-.27.745-1.028 1.096-1.14 1.248-.23.307-.308.81-.03 1.047.277.234.75.113.75.113s-.268.18-.49.2c-.13.012-.472.09-.824-.202-.3-.252-.402-.575-.275-1.202.125-.625.557-1.142.557-1.142s-.48 1.615-.657 1.902c-.178.287-.104.54-.38.734-.227.16-.984.25-.94 1.2.012.276.334.357.334.357s-.74-.047-.746-.706c-.002-.37-.017-.313.152-.74.21-.532.824-.69.824-1.263 0-.575-.23-.886-.23-.886s.39.468-.023.927c-.208.233-.327.376-.83.715-.504.338-.556.338-.607.572-.048.234.405.34-.125.547-.53.208.354.728-1.16.285-1.515-.442-1.942-.39-1.942-.39"/><path fill="#E2BF9C" d="M14.65 17.707v11.71H8.282c-.096-.047-.154-.067-.154-.067 0-2.957.86-4.626 1.77-5.563 1.034-1.058 2.128-1.188 2.128-1.188h.03c.028-.006.058-.01.086-.02.32-.088.544-.56.688-1.24.026-.116.047-.236.065-.366.037-.216.073-.442.092-.68.017-.142.024-.285.04-.433.056-.716.075-1.497.075-2.24 0 0 .772.077 1.44.086h.108z"/><path fill="#F2D1AC" d="M21.088 29.35s-.06.02-.15.066h-6.395v-11.71h.107c.674-.008 1.46-.085 1.46-.085 0 .737.018 1.51.075 2.224l.04.425c.028.244.054.476.09.696v.002c.013.1.03.19.05.28.133.655.33 1.136.614 1.298.02.01.044.02.068.025.043.02.093.028.143.028 0 0 .996.12 1.978 1.044.206.197.41.425.607.697.724 1 1.313 2.562 1.313 5.01"/><defs><path id="a" d="M12.787 19.846h3.527v2.084h-3.527z"/></defs><clipPath id="b"><use xlink:href="#a" overflow="visible"/></clipPath><path clip-path="url(#b)" fill="#C09A80" d="M16.314 20.966v.004c-.157.25-.697.96-1.765.96h-.01c-1.012-.004-1.604-.742-1.753-.956.035-.213.065-.442.088-.68.014-.142.026-.285.042-.43.494.125 1.03.2 1.605.21h.018c.59-.01 1.135-.09 1.644-.23l.04.426c.027.246.054.478.09.696"/><path fill="#D3A789" d="M14.536 5.122C7.894 5.11 7.854 10.45 8.15 13.93c-.457-.817-1.803-.513-1.693.795.106 1.253 2.01 1.82 1.983 1.682.544 2.837 3.675 4.412 6.096 4.635.017.002.036.002.05.002V5.124l-.05-.002"/><path fill="#C09A80" d="M6.79 14.17c.335-.503.848-.285.975-.174.135.12.24.282.158.582-.047.167-.233.18-.19.436.052.29.19.307.273.373.077.063.177.113.227.236.047.12.056.25.03.36-.053.208-.37.042-.58-.05-.143-.06-.588-.417-.7-.537-.283-.303-.416-.887-.192-1.225"/><path fill="#E0B89B" d="M14.57 5.122c6.645-.012 6.684 5.328 6.388 8.808.455-.817 1.804-.513 1.692.795-.107 1.253-2.01 1.82-1.984 1.682-.543 2.837-3.675 4.412-6.096 4.635-.018.002-.035.002-.052.002V5.124l.052-.002"/><path fill="#C09A80" d="M22.365 14.17c-.336-.503-.848-.285-.976-.174-.135.12-.24.282-.16.582.05.167.234.18.19.436-.05.29-.19.307-.27.373-.08.063-.178.113-.23.236-.047.12-.056.25-.028.36.052.208.37.042.582-.05.138-.06.585-.417.696-.537.285-.303.418-.887.195-1.225"/><path fill="#E2BF9C" d="M14.502 6.634c-2.22 0-3.842.61-4.826 1.818-1.372 1.688-1.32 4.265-.813 6.114.153.565.235 2.09.342 2.647.478 2.502 3.384 3.833 5.298 3.833l.05-.002V6.634h-.05"/><path fill="#F2D1AC" d="M19.318 8.458c-.976-1.2-2.582-1.812-4.766-1.823v14.41c2.187-.02 4.8-1.48 5.248-3.83.105-.558.186-2.082.34-2.647.506-1.846.555-4.42-.822-6.11"/><path fill="#C7696E" d="M15.672 18.788s-.502.536-1.122.536c-.617 0-1.09-.524-1.09-.524s.473-.082 1.09-.082c.62 0 1.122.07 1.122.07"/><path fill="#D87373" d="M14.867 18.54c-.174 0-.312.107-.317.244-.002-.136-.142-.243-.315-.243-.176 0-.804.248-.804.248s.613.064.79.064c.174 0 .328.07.33-.062.003.132.13.08.306.08.173 0 .816-.082.816-.082s-.628-.247-.805-.247M21.088 29.35s-.06.02-.15.066H8.28c-.096-.046-.154-.066-.154-.066 0-2.957.867-4.84 1.92-5.71.01.042 0 .272.035.41 0 0 .054.563.157.73.606.97 2.95 1.967 3.558 2.03l.27.026c.137.01.294.018.453.027h.023c.037-.004.072-.004.107-.004.11-.01.217-.015.32-.024.1-.01.19-.018.268-.027.608-.063 2.957-1.06 3.56-2.03.105-.17.153-.485.222-.717l-.02-.098c.026-.09-.09-.388-.06-.53.207.196.602.494.84.85.745 1.117 1.308 2.617 1.308 5.065"/><path fill="#C7696E" d="M14.088 29.416h-.71c.022-.43.053-1.12.053-1.508 0-.368.083-.817-.642-1.34-.723-.518-2.612-.48-2.8-1.73-.043-.29-.04-.548-.017-.757v-.003c.036-.344.112-.56.112-.56s.356-.29.49-.376c.167-.105.708-.358.708-.358 0 .578-.47 1.85.11 2.28.574.434 1.825.79 2.16.96.33.175.446.402.506.725.004.02.01.047.01.09.036.42.027 1.852.022 2.58M19.05 24.84c-.186 1.246-2.078 1.21-2.796 1.728-.725.522-.65.972-.65 1.34 0 .388.032 1.078.056 1.508h-.71c-.005-.727-.014-2.16.02-2.58 0-.042.004-.068.01-.09.058-.322.174-.55.51-.723.33-.172 1.58-.527 2.155-.96.582-.432.107-1.735.107-2.31 0 0 .542.16.7.257.3.184.513.456.513.456s.067.264.104.593v.003c.018.213.022.48-.02.776"/><g fill="#563825"><path d="M10.743 13.97c-.003.01-.002.01 0 0z"/><path d="M21.52 8.49c-.57-.876-.61-.63-.61-.63s.57-2.388-2.982-2.916c-.59-.09-1.395-.04-1.395-.04l.483.49s-1.87-.64-4.34-.257C10.88 5.415 9.653 6.3 8.636 7.74c-.68.964-.89 2.386-.89 2.386l.93-1.24c-.475.73-1.19 2.204-.93 4.185.552 4.164 2.48 4.936 2.48 4.936s-1.328-2.495-.45-4.112c1.473-2.713 4.098-2.794 4.098-2.794s-2.454.22-3.127 2.858l-.004.014c.024-.08.282-.802 1.243-1.173.582-.225 1.347-.218 2.22-.446-.82 1.053-.927 2.158-.927 2.158s.77-1.246 2.66-1.958l.355-.133c-.557.72-.36 1.93-.18 2.168 0 0-.064-1.09 2.31-1.77 1.368-.395 1.587-1.17 1.587-1.17s-.01.77.176 1.258c.214.57.818.94.86 1.454.08.955-.435 2.745-.435 2.745l.77-.604c.398-1.39.77-3.723.77-4.797 0-1.074-.2-2.55-.632-3.214z"/></g></svg>