<svg xmlns="http://www.w3.org/2000/svg" xmlns:xlink="http://www.w3.org/1999/xlink" width="29" height="29" viewBox="0 0 29 29"><path fill="#5AADC5" d="M-.16-.196H29.55v29.774H-.16z"/><path fill="#E2BF9C" d="M14.428 17.84V29.58H8.034c-.102-.045-.156-.067-.156-.067 0-5.18 2.653-6.416 3.59-6.69.203-.06.324-.074.324-.074h.032c.025-.005.057-.01.085-.018.32-.09.54-.565.69-1.246.024-.116.047-.236.064-.366.037-.215.066-.445.09-.68l.04-.433c.06-.722.078-1.504.078-2.247 0 0 .86.085 1.556.085"/><path fill="#F2D1AC" d="M21 29.51s-.062.023-.153.068h-6.42V17.84h.015c.693 0 1.56-.083 1.56-.083 0 .738.02 1.51.075 2.228l.04.426c.03.247.054.48.09.698v.004c.015.098.033.188.05.277.135.657.33 1.14.618 1.3.023.01.043.024.068.03.043.017.094.026.145.026 0 0 .115.014.303.066.918.265 3.61 1.482 3.61 6.7"/><defs><path id="a" d="M12.665 19.988h3.54v2.09h-3.54z"/></defs><clipPath id="b"><use xlink:href="#a" overflow="visible"/></clipPath><path clip-path="url(#b)" fill="#C09A80" d="M16.206 21.11v.005c-.157.25-.7.963-1.77.963h-.01c-1.018-.005-1.61-.745-1.762-.958.034-.214.066-.444.09-.68l.04-.433c.497.125 1.035.2 1.61.21h.02c.593-.01 1.14-.09 1.65-.23l.042.424c.028.25.054.48.09.7"/><path fill="#D3A789" d="M14.42 5.23c-6.67-.012-6.71 5.34-6.41 8.83-.46-.82-1.81-.515-1.7.795.106 1.256 2.017 1.826 1.99 1.687.547 2.843 3.69 4.423 6.12 4.648h.05V5.232l-.05-.002"/><path fill="#C09A80" d="M6.645 14.302c.334-.508.85-.29.978-.177.135.12.24.28.157.583-.045.167-.235.18-.188.436.05.29.19.308.27.374.08.063.182.113.23.236.046.12.057.25.03.36-.052.21-.37.045-.583-.048-.143-.06-.59-.42-.703-.54-.283-.302-.417-.887-.192-1.224"/><path fill="#E0B89B" d="M14.455 5.23c6.67-.012 6.708 5.34 6.41 8.83.46-.82 1.812-.515 1.702.795-.107 1.256-2.018 1.826-1.992 1.687-.545 2.843-3.69 4.423-6.12 4.648h-.053V5.232l.053-.002"/><path fill="#C09A80" d="M22.28 14.302c-.336-.508-.854-.29-.98-.177-.134.12-.24.28-.157.583.047.167.234.18.188.436-.048.29-.188.308-.27.374-.076.063-.178.113-.227.236-.05.12-.06.25-.03.36.052.21.368.045.583-.048.14-.06.588-.42.7-.54.286-.302.42-.887.194-1.224"/><path fill="#E2BF9C" d="M14.387 6.746c-2.228 0-3.857.612-4.845 1.823-1.38 1.69-1.326 4.273-.818 6.125.155.566.234 2.094.342 2.654.48 2.507 3.4 3.84 5.32 3.84h.05V6.747l-.05-.002"/><path fill="#F2D1AC" d="M19.22 8.57c-.98-1.2-2.59-1.813-4.783-1.822V21.19c2.196-.023 4.818-1.484 5.27-3.84.107-.56.186-2.087.342-2.654.504-1.848.554-4.427-.83-6.125"/><path fill="#C7696E" d="M15.56 18.927s-.502.538-1.124.538c-.62 0-1.096-.526-1.096-.526s.475-.084 1.096-.084c.622 0 1.123.07 1.123.07"/><path fill="#D87373" d="M14.755 18.68c-.176 0-.315.106-.32.243-.003-.137-.144-.244-.316-.244-.18 0-.81.248-.81.248s.617.063.793.063c.173 0 .33.07.333-.06 0 .13.13.08.305.08.177 0 .82-.083.82-.083s-.63-.248-.805-.248"/><path fill="#3B4D81" d="M21.063 29.51s-.06.023-.154.068H7.97c-.104-.045-.16-.067-.16-.067 0-2.493.61-4.076 1.347-5.09l.003-.003c.32-.44.668-.77.996-1.018.05-.042.11-.078.168-.12.01-.01.014-.014.02-.014.054-.036.106-.072.16-.104.375-.22 1.6-.79 1.832-.858l-.404 1.09c-.024.444 1.203 2.607 2.472 2.585 1.32-.023 2.685-2.247 2.646-2.71.135-.196-.635-.824-.524-.975.495.146 2.4 1.008 3.228 2.164.722 1.013 1.31 2.597 1.31 5.05"/><path fill="#4AC2EF" d="M14.418 29.518l-.49-1.76-.49-1.76h1.966l-.493 1.76"/><path fill="#F9F9FA" d="M17.298 23.48c-.115-.27-.39-.522-.488-.736-.163-.352-.315-.666-.315-.666-.037.338-.604 1.843-.604 1.843s-1.73 2.14-1.452 2.195c.28.057 1.552.24 1.93.645.38.407.316.785.414.236.096-.552.82-2.798.516-3.517"/><path fill="#F9F9FA" d="M12.98 23.92s-.567-1.504-.605-1.842l-.316.666c-.102.214-.376.467-.49.735-.302.718.42 2.964.52 3.515.1.55.035.17.413-.236.38-.407 1.656-.59 1.934-.646.28-.053-1.458-2.193-1.458-2.193"/><path fill="#070808" d="M20.853 9.92c-.078-.233-.158-.452-.24-.662v-.09c0-.888-.758-2.038-1.963-3.156-1.205-1.117-1.96-.887-2.96-.855l-.007.018c-.438-.097-2.793-.58-4.194-.045-1.55.592-2.82 1.607-3.714 4.336-.895 2.728-.16 4.963.014 5.917.55 3.02 3.188 4.93 3.188 4.93s-.667-.806-.964-1.61c-.23-.624-.576-1.695-.576-3.273s1.506-3.53 1.506-3.53-.695 1.225-.83 2.572c-.14 1.348.59 2.39.59 2.39s-.924-1.75.55-3.056c.47-.416.86-.85 1.177-1.246v.002c-.37 1.033.372 1.9.372 1.9s-.014-1.324.755-1.774c1.873-1.097 2.17-1.55 2.435-2.432.035-.12.056-.232.07-.34l1.71 2.553c.08.11.21.297.363.54.443.708 1.057 1.867 1.057 2.876 0 1.578-.346 2.65-.574 3.273-.3.803-.965 1.61-.965 1.61s2.64-1.913 3.188-4.933c.17-.953.907-3.187.013-5.916z"/></svg>