<svg xmlns="http://www.w3.org/2000/svg" xmlns:xlink="http://www.w3.org/1999/xlink" width="29" height="29" viewBox="0 0 29 29"><path fill="#4AC2EF" d="M-.094-.224h29.768v29.89H-.094z"/><path d="M21.54 17.464c-.946 3.617-3.057 4.377-6.833 4.377-3.773 0-6.833-1.958-6.833-4.376 0-2.417 3.06-4.377 6.833-4.377 3.776 0 7.444 2.038 6.834 4.377"/><path fill="#E2BF9C" d="M14.42 17.9v11.71H8.052c-.103-.05-.156-.068-.156-.068 0-1.973.384-3.375.91-4.365.675-1.27 1.585-1.87 2.22-2.147.09-.04.174-.073.252-.102.27-.098.462-.125.508-.134h.039c.027-.004.06-.01.086-.018.32-.093.542-.563.69-1.243.002-.01.002-.03.006-.043.022-.106.046-.21.06-.323.037-.213.065-.442.09-.684l.04-.427c.057-.724.074-1.505.074-2.24-.002 0 .857.083 1.55.083"/><path fill="#F2D1AC" d="M20.965 29.542s-.06.02-.152.068H14.42V17.9h.01c.693 0 1.558-.085 1.558-.085 0 .736.016 1.51.074 2.224l.04.42c.026.25.053.48.09.694v.01c.013.1.03.187.05.276.005.018.01.036.01.05.133.633.328 1.092.605 1.25.022.008.045.022.065.026.045.02.096.027.143.027 0 0 .028.004.077.014.37.07 2.006.495 3.01 2.57.477.98.813 2.32.813 4.165"/><defs><path id="a" d="M12.664 20.036h3.526v2.087h-3.526z"/></defs><clipPath id="b"><use xlink:href="#a" overflow="visible"/></clipPath><path clip-path="url(#b)" fill="#C09A80" d="M16.19 21.158v.004c-.156.25-.696.96-1.764.96h-.006c-1.016-.004-1.604-.742-1.756-.956.037-.216.065-.442.09-.68l.04-.433c.495.125 1.03.202 1.607.21h.02c.588-.008 1.133-.087 1.642-.228l.04.425c.028.246.052.48.088.698"/><path fill="#D3A789" d="M14.413 5.314c-6.645-.012-6.68 5.327-6.386 8.81-.457-.82-1.804-.515-1.694.794.106 1.253 2.012 1.82 1.985 1.683.542 2.837 3.674 4.413 6.095 4.636h.052V5.317l-.052-.002"/><path fill="#C09A80" d="M6.667 14.364c.334-.505.847-.286.974-.175.136.12.242.28.16.58-.047.168-.233.18-.188.437.05.288.19.307.27.37.078.066.178.116.23.238.046.12.056.25.028.362-.053.206-.37.04-.582-.05-.14-.062-.585-.42-.695-.54-.287-.304-.42-.885-.196-1.223"/><path fill="#E0B89B" d="M14.446 5.314c6.645-.012 6.684 5.327 6.386 8.81.457-.82 1.807-.515 1.694.794-.106 1.253-2.01 1.82-1.982 1.683-.545 2.837-3.677 4.413-6.098 4.636h-.05V5.317l.05-.002"/><path fill="#C09A80" d="M22.24 14.364c-.334-.505-.848-.286-.974-.175-.135.12-.24.28-.16.58.05.168.235.18.19.437-.05.288-.19.307-.272.37-.077.066-.177.116-.227.238-.048.12-.057.25-.03.362.053.206.368.04.58-.05.143-.062.587-.42.7-.54.285-.304.416-.885.193-1.223"/><path fill="#E2BF9C" d="M14.38 6.826c-2.22 0-3.844.61-4.827 1.82-1.374 1.687-1.32 4.262-.815 6.112.155.566.234 2.09.343 2.648.48 2.5 3.385 3.834 5.3 3.834.016 0 .034-.003.052-.003V6.827h-.053"/><path fill="#F2D1AC" d="M19.195 8.647c-.977-1.2-2.582-1.81-4.765-1.82v14.41c2.185-.023 4.796-1.482 5.246-3.83.105-.56.187-2.083.34-2.65.505-1.844.555-4.418-.82-6.11"/><path fill="#C7696E" d="M15.546 18.978s-.5.536-1.12.536c-.617 0-1.09-.524-1.09-.524s.473-.08 1.09-.08c.62 0 1.12.068 1.12.068"/><path fill="#D87373" d="M14.744 18.73c-.174 0-.313.11-.317.243-.003-.134-.144-.243-.315-.243-.176 0-.805.248-.805.248s.613.066.79.066c.173 0 .327.068.33-.062.004.13.13.08.304.08s.816-.084.816-.084-.627-.248-.802-.248"/><path fill="#187F7C" d="M11.277 22.88c-.02.976-.083 2.904-.193 2.904-.157 0-.53-.084-.53-.084s.41-.39.465-2.1c.005-.254.01-.46.005-.616.09-.04.174-.072.252-.103M17.55 22.88c.015.976.08 2.904.19 2.904.156 0 .53-.084.53-.084s-.41-.39-.463-2.1c-.01-.254-.014-.46-.01-.616-.09-.04-.174-.072-.248-.103"/><path fill="#187F7C" d="M20.05 25.146c-.646.24-1.707.54-3.272.702-.51.054-1.397.086-2.35.095-.95-.01-1.84-.04-2.348-.095-1.566-.162-2.627-.463-3.27-.702-.53 1-.915 2.41-.915 4.396 0 0 .054.02.156.068h12.752c.103-.05.158-.068.158-.068.002-1.987-.385-3.397-.91-4.396"/><path fill="#D7878E" d="M17.142 22.79c-.34.138-1.085.28-2.697.28h-.025c-1.492 0-2.25-.143-2.635-.294h.039c.027-.005.06-.01.086-.02.32-.1.54-.596.688-1.316.003-.016.003-.034.007-.047.23.047.92.175 1.793.175h.022c.824 0 1.574-.127 1.832-.175.132.672.327 1.16.604 1.326.022.008.045.024.065.03.046.017.097.027.144.027 0-.002.03.003.078.014"/><path d="M9.25 21.003S.903 15.32 8.336 5.226c1.87-2.538 4.097-2.856 5.463-2.873 1.465-.016 2.51.747 2.51.747s5.36.52 6.162 4.064c.636 2.805 1.322 3.936.974 6.403-.767 5.403-2.772 7.23-2.772 7.23l-1.532 1.156s1.056-2.882 1.327-4.65c.272-1.77.074-2.397-.23-3.622-.31-1.226-1.123-2.223-2.52-3.245-1.396-1.02-1.24-3.44-1.24-3.44s-6.894 3.008-6.78 10.75c.026 1.604 1.33 4.378 1.33 4.378l-1.78-1.12z"/></svg>