<svg xmlns="http://www.w3.org/2000/svg" width="29" height="29" viewBox="0 0 29 29"><path fill="#ABC88D" d="M-.155-.4h29.633v29.816H-.155z"/><path fill="#E1BF9C" d="M14.515 18.864v10.578H8.4l-.15-.06c0-3.865 1.737-5.292 2.844-5.812.52-.242.9-.286.9-.286h.03c.026-.004.055-.01.08-.017.31-.08.52-.508.66-1.12.026-.105.048-.214.065-.33.033-.195.063-.4.085-.614l.04-.39c.054-.65.07-1.356.07-2.026.002 0 .825.077 1.49.077z"/><path fill="#F2D1AC" d="M20.8 29.38s-.055.02-.146.062h-6.14V18.864h.013c.665 0 1.492-.077 1.492-.077 0 .667.016 1.363.072 2.008.012.13.025.257.04.383.024.222.05.432.084.63v.003c.013.09.03.17.047.25.128.594.317 1.03.592 1.175.022.008.043.02.064.024.042.015.088.024.137.024 0 0 .304.03.736.212 1.095.458 3.007 1.827 3.007 5.885z"/><path opacity=".7" fill="#C09A80" d="M16.28 21.418v.003c-.15.238-.66.913-1.672.913h-.01c-.96-.004-1.517-.705-1.66-.908.033-.203.06-.42.083-.645.015-.135.026-.27.04-.41.47.118.977.19 1.52.2h.02c.558-.01 1.073-.086 1.556-.217l.038.403c.025.234.05.454.085.662z"/><path fill="#D3A789" d="M14.594 6.375c-6.295-.012-6.33 5.058-6.052 8.363-.432-.776-1.708-.488-1.604.754.1 1.19 1.904 1.73 1.88 1.598.515 2.693 3.482 4.19 5.775 4.402h.05V6.375h-.05z"/><path fill="#C09A80" d="M7.255 14.968c.316-.48.803-.273.922-.167.127.116.23.27.15.552-.045.16-.222.172-.178.415.046.273.18.29.254.354.075.062.17.11.216.225.045.115.054.238.027.343-.048.197-.35.04-.55-.047-.134-.056-.555-.395-.66-.51-.27-.29-.393-.842-.182-1.162z"/><path fill="#E0B89B" d="M14.625 6.375c6.296-.012 6.332 5.058 6.052 8.363.432-.776 1.71-.488 1.604.754-.1 1.19-1.904 1.73-1.878 1.598-.516 2.693-3.482 4.19-5.777 4.402h-.048V6.375h.048z"/><path fill="#C09A80" d="M22.01 14.968c-.315-.48-.803-.273-.923-.167-.127.116-.228.27-.15.552.045.16.223.172.18.415-.047.273-.18.29-.257.354-.074.062-.168.11-.216.225-.045.115-.054.238-.027.343.05.197.35.04.55-.047.134-.056.556-.395.662-.51.267-.29.39-.842.18-1.162z"/><path fill="#E1BF9C" d="M14.562 7.81c-2.104 0-3.642.58-4.574 1.728-1.3 1.6-1.25 4.048-.77 5.804.146.537.22 1.984.322 2.515.453 2.374 3.207 3.64 5.02 3.64l.05-.002V7.81h-.048z"/><path fill="#F2D1AC" d="M19.125 9.54C18.2 8.4 16.68 7.82 14.61 7.81v13.685c2.07-.02 4.546-1.408 4.972-3.638.1-.53.176-1.98.322-2.515.478-1.752.525-4.195-.78-5.8z"/><path fill="#C6696E" d="M15.668 19.35s-.476.508-1.06.508c-.587 0-1.035-.5-1.035-.5s.448-.076 1.034-.076c.586 0 1.06.067 1.06.067z"/><path fill="#D87373" d="M14.908 19.114c-.164 0-.297.103-.3.23-.003-.127-.136-.23-.3-.23-.166 0-.762.235-.762.235s.58.06.746.06.312.066.315-.058c.003.125.122.077.286.077.167 0 .774-.08.774-.08s-.593-.236-.76-.236z"/><path fill="#F9F9FA" d="M20.8 29.377s-.055.022-.143.064h-6.47c-.058-.284-.126-.597-.188-.898-.136-.648-.255-1.225-.255-1.225.01-.013.187-.152.46-.386.115-.093.246-.207.396-.334.99-.852 2.57-2.297 3.235-3.404.406.178.923.496 1.412 1.043.34.376.665.868.932 1.504.37.895.62 2.077.62 3.637z"/><path fill="#F9F9FA" d="M14.28 29.44h-2.133c-.84-1.2-1.878-3.136-2.53-4.752.42-.605.894-1 1.31-1.258.526 1.67 1.672 4.065 3.352 6.01z"/><path fill="#F9F9FA" d="M8.258 29.31s.055.02.144.063h6.467l.19-.9.254-1.224c-.01-.014-.188-.153-.462-.386-.114-.095-.245-.208-.394-.335-.99-.853-2.572-2.3-3.235-3.405-.407.18-.923.496-1.413 1.044-.34.375-.664.868-.93 1.503-.373.894-.622 2.077-.622 3.637z"/><g fill="#35251D"><path d="M10.177 13.2c-.004.012-.004.01 0 0z"/><path d="M20.873 7.75c-.564-.87-.605-.625-.605-.625s.568-2.376-2.96-2.902c-.586-.087-1.386-.04-1.386-.04l.48.486s-1.854-.635-4.308-.255c-1.783.277-3 1.156-4.01 2.59-.674.958-.88 2.373-.88 2.373l.922-1.232c-.472.726-1.182 2.19-.923 4.16.546 4.14 2.462 4.908 2.462 4.908s-1.32-2.482-.448-4.09c1.463-2.698 4.067-2.78 4.067-2.78s-2.435.22-3.103 2.844c0 .007-.003.01-.003.013.024-.08.28-.797 1.233-1.165.58-.223 1.337-.216 2.205-.444-.814 1.05-.923 2.15-.923 2.15s.768-1.24 2.645-1.95l.35-.13c-.553.714-.355 1.917-.178 2.156 0 0-.065-1.084 2.292-1.762 1.356-.39 1.574-1.16 1.574-1.16s-.01.762.174 1.25c.212.565.812.934.855 1.445.078.95-.432 2.73-.432 2.73l.763-.6c.396-1.386.766-3.706.766-4.774 0-1.067-.2-2.535-.63-3.196z"/></g></svg>