<svg xmlns="http://www.w3.org/2000/svg" width="29" height="29" viewBox="0 0 29 29"><path fill="#607298" d="M-.37-.486h29.626v29.953H-.37z"/><path fill="#E1BF9C" d="M14.74 17.975V29.33H8.566c-.1-.042-.15-.065-.15-.065 0-3.706 1.398-5.325 2.493-6.026.705-.45 1.285-.52 1.285-.52h.03c.026-.005.056-.01.083-.018.31-.087.523-.546.665-1.2.026-.116.05-.233.065-.36.035-.207.065-.43.087-.658l.038-.42c.058-.696.074-1.454.074-2.173 0 .003.833.085 1.503.085z"/><path fill="#F2D1AC" d="M21.088 29.266s-.057.022-.147.065h-6.2V17.976h.015c.67 0 1.506-.083 1.506-.083 0 .715.02 1.464.075 2.156.013.14.025.277.04.41.024.24.05.464.086.676v.004c.014.096.03.182.048.27.13.635.32 1.103.598 1.26.02.008.044.025.065.025.044.018.092.026.14.026 0 0 .39.047.918.31 1.116.565 2.86 2.102 2.86 6.236z"/><path opacity=".7" fill="#C09A80" d="M16.457 21.14v.003c-.15.243-.674.93-1.71.93h-.008c-.984-.003-1.556-.717-1.703-.926.035-.208.064-.428.086-.658l.04-.42c.48.122 1 .195 1.558.204h.02c.57-.01 1.1-.086 1.593-.222l.04.412c.023.238.05.462.084.675z"/><path fill="#D3A789" d="M14.733 5.774c-6.443-.012-6.48 5.166-6.194 8.542-.442-.793-1.75-.498-1.642.77.103 1.216 1.95 1.766 1.924 1.632.527 2.75 3.564 4.28 5.91 4.497h.05V5.776h-.05z"/><path fill="#C09A80" d="M7.222 14.552c.323-.492.82-.28.944-.172.13.118.233.273.153.563-.047.163-.228.175-.184.423.05.28.186.297.262.36.076.062.173.112.22.23.048.117.056.243.03.35-.05.202-.358.042-.564-.047-.135-.06-.566-.406-.677-.523-.274-.294-.4-.86-.185-1.185z"/><path fill="#E0B89B" d="M14.766 5.774c6.443-.012 6.48 5.166 6.194 8.542.442-.793 1.748-.498 1.642.77-.103 1.216-1.95 1.766-1.924 1.632-.527 2.75-3.563 4.28-5.912 4.497h-.05V5.776h.05z"/><path fill="#E1BF9C" d="M14.7 7.24c-2.152 0-3.727.594-4.68 1.764-1.332 1.636-1.28 4.134-.79 5.928.15.55.227 2.026.33 2.57.465 2.425 3.283 3.717 5.14 3.717.016 0 .033-.003.05-.003V7.24h-.05z"/><path fill="#F2D1AC" d="M19.37 9.007c-.946-1.164-2.503-1.756-4.62-1.767v13.976c2.12-.022 4.652-1.438 5.087-3.716.104-.543.18-2.02.332-2.57.488-1.786.536-4.282-.8-5.923z"/><path fill="#C6696E" d="M15.833 19.026s-.486.52-1.086.52-1.058-.51-1.058-.51.457-.078 1.057-.078 1.086.068 1.086.068z"/><path fill="#D87373" d="M15.055 18.786c-.17 0-.304.105-.308.236-.003-.13-.14-.236-.307-.236-.17 0-.778.24-.778.24s.593.063.763.063c.17 0 .32.065.322-.06.003.126.125.078.294.078.17 0 .793-.082.793-.082s-.608-.24-.778-.24z"/><path fill="#FFF" d="M21.088 29.266s-.057.022-.147.065H8.538c-.1-.04-.152-.064-.152-.064 0-3.706 1.53-5.653 2.868-6.233 1.007 1.017 2.194 2.604 2.513 2.904.543.508.873 1.375 1.215 1.158.35-.223 2.25-2.903 3.24-4.062 1.12.562 2.868 2.1 2.868 6.233z"/><path fill="#9E1D24" d="M22.62 11.18c.434.002.888-.233.978-.282-.08.04-.694.204-1.283-.133-.682-.39-.894-.616-1.184-1.327-.292-.71-.03-.716-.32-1.273-.29-.558-.184-1.064-.515-1.563-.51-.767-2.057-.87-2.12-.96-.303-.44-.38-.353-.488-.252.003-.364-.108-.39-.156-.614 0 0-.102-.466-.375-.27-.068.048-.34.042-.37.137-.28-.04-.657-.025-1.117.008-.648.048-1.608-.19-3.14.17-1.324.313-1.697.745-2.67 1.692-.35.34-.622.937-.82 1.507-.85.796-1.756 2.187-1.877 4.614-.04.968.604 2.142.604 2.142s-.125-.74.027-1.573c.122-.645.334-1.24.988-1.853-.34.363-.628.912-.732 1.632-.19 1.36.095 2.432.546 3.386.338.717 1.253 1.643 1.45 1.896-.076-.11-.126-.434-.163-.838.49.674 1.472 1.18 1.472 1.18l-.45-.65s-.46-.922-.706-1.937c-.246-1.016.17-1.964.17-1.964s.033.72.104.947c.45 1.427 1.378 1.782 1.378 1.782s-1.267-2.12-.234-4.458c.29-.66 1.14-1.71 1.14-1.71s-.403.53-.668 1.244c-.07.188-.09 1.008.177 1.41.057-.247-.05-.62.25-1.14.318-.542.904-.584 1.563-.765.2.092.64.26 1.237.27 1.17.02 2.623-.992 2.605-2.828.04.068.092 1.093-.078 1.558-.364 1.003-1.204 1.476-1.204 1.476s1.427-.227 1.9-1.053c.136-.234.245-.543.33-.876-.075.567.048 1.547.278 1.92.097.157.188.485.205.553.135.565.32 1.614.017 2.236-.303.622-1.343 1.315-1.343 1.315s.854-.127 1.714-.825c-.182.517-.36 1.165-.31 1.63.127 1.155-1.184 2.013-1.184 2.013 1.434-.357 2.487-1.82 2.77-3.34.183-.978-.198-1.865-.182-1.913.304.428.366.845.39 1.163.033.44.05 1.118-.227 1.736 0 0 1.26-1.175 1.23-1.85-.03-.675.413-1.236.147-2.27-.088-.343-.78-1.3-.78-1.3l-.33-.288c.33.29.872.488 1.357.49zm-6.556-.7c-.502.77-1.4.855-1.846.846.257-.078.522-.182.784-.35 1.01-.633 1.49-1.652 1.494-2.003.002 0 .005 0 .007-.002-.13.863-.096.984-.44 1.51z"/></svg>