<svg xmlns="http://www.w3.org/2000/svg" width="29" height="29" viewBox="0 0 29 29"><path fill="#5EA7AF" d="M-.328-.486h29.626v29.953H-.328z"/><path fill="#E1BF9C" d="M14.82 18.477v10.85h-5.9c-.094-.046-.144-.063-.144-.063 0-1.36.194-2.423.5-3.26.695-1.922 1.944-2.626 2.63-2.87.29-.104.48-.127.48-.127h.028c.025-.004.055-.01.08-.017.197-.053.355-.27.478-.595.062-.158.112-.343.158-.55.024-.11.045-.224.062-.34.03-.2.06-.408.082-.63l.037-.4c.056-.668.07-1.392.07-2.075.004-.002.798.077 1.44.077z"/><path fill="#F2D1AC" d="M20.882 29.263s-.054.017-.14.062h-5.923V18.477h.01c.642 0 1.44-.078 1.44-.078 0 .678.017 1.393.07 2.055l.037.397c.025.224.05.443.083.64v.008c.013.087.028.174.046.25.058.288.128.536.21.734h.005c.096.23.216.393.356.47.02.01.04.026.062.03.04.01.086.02.132.02 0 0 .106.013.29.063.652.194 2.245.898 2.96 3.36.183.615.307 1.343.344 2.202.014.204.018.415.018.633z"/><path opacity=".7" fill="#C09A80" d="M16.458 21.496v.004c-.145.232-.645.89-1.633.89h-.01c-.937-.004-1.484-.687-1.624-.885.034-.2.063-.41.084-.63l.036-.4c.46.117.956.187 1.49.195h.016c.546-.008 1.05-.082 1.52-.21l.04.392c.024.226.05.44.082.644z"/><path fill="#D3A789" d="M14.812 6.818c-6.155-.012-6.19 4.935-5.917 8.16-.423-.757-1.67-.476-1.567.736.098 1.16 1.86 1.687 1.838 1.56.503 2.627 3.404 4.086 5.646 4.294.016 0 .032 0 .048.002V6.82l-.048-.002z"/><path fill="#C09A80" d="M7.636 15.203c.31-.47.785-.267.902-.163.124.112.223.26.146.538-.043.156-.216.167-.173.405.046.266.177.283.25.344.073.06.165.107.21.22.045.11.054.23.028.333-.048.193-.342.04-.538-.045-.13-.057-.543-.387-.646-.5-.263-.28-.384-.82-.178-1.132z"/><path fill="#FFF" d="M19.427 26.49c-.844-1.44-1.436-2.46-1.696-3.356-.288-.104-.48-.127-.48-.127h-.027c-.024-.004-.054-.01-.078-.017-.2-.053-.356-.27-.48-.595-.104.054-.24.107-.41.152-.524.15-1.41.373-1.41.373s.42.86.856 2.13c.35 1.014-.205 1.774-.88 1.803-.674-.03-1.228-.79-.88-1.803.438-1.27.855-2.13.855-2.13s-.885-.223-1.41-.373c-.17-.045-.306-.1-.41-.152-.123.326-.28.542-.48.595-.023.008-.053.013-.078.017h-.028s-.19.024-.48.127c-.26.897-.852 1.915-1.695 3.355-.468.796-.144 2.23.13 2.836h8.958c.266-.554.59-2.04.124-2.837z"/><path fill="#E0B89B" d="M14.843 6.818c6.154-.012 6.19 4.935 5.916 8.16.422-.757 1.67-.476 1.567.736-.098 1.16-1.86 1.687-1.837 1.56-.504 2.627-3.404 4.086-5.647 4.294-.016 0-.032 0-.047.002V6.82l.047-.002z"/><path fill="#C09A80" d="M21.888 15.203c-.308-.47-.784-.267-.9-.163-.125.112-.224.26-.147.538.045.156.218.167.176.405-.046.266-.176.283-.25.344-.073.06-.165.107-.21.22-.045.11-.054.23-.028.333.047.193.34.04.538-.045.13-.057.542-.387.646-.5.262-.28.383-.82.176-1.132z"/><path fill="#E1BF9C" d="M14.78 8.218c-2.057 0-3.56.567-4.472 1.686-1.27 1.563-1.224 3.95-.754 5.663.143.524.217 1.935.315 2.454.442 2.318 3.136 3.552 4.908 3.552l.048-.002V8.22l-.047-.002z"/><path fill="#F2D1AC" d="M19.24 9.906c-.903-1.11-2.39-1.678-4.413-1.687v13.35c2.024-.02 4.444-1.373 4.86-3.55.1-.518.172-1.93.315-2.453.47-1.71.516-4.092-.76-5.66z"/><path fill="#C6696E" d="M15.862 19.477s-.465.497-1.037.497-1.01-.486-1.01-.486.437-.074 1.01-.074 1.037.063 1.037.063z"/><path fill="#D87373" d="M15.118 19.248c-.16 0-.29.1-.293.225-.004-.124-.133-.225-.293-.225-.163 0-.744.23-.744.23s.566.06.73.06.304.062.308-.058c.002.122.12.075.28.075.163 0 .757-.078.757-.078s-.582-.23-.745-.23z"/><path fill="#3D4D55" d="M22.628 12.686c-.018-.11-.038-.22-.06-.33l.76.952C22.77 9.22 21.064 7.7 21.064 7.7v.004C19.5 5.71 16.08 5.374 16.08 5.374s-.96-.7-2.308-.686c-1 .012-2.51.202-3.95 1.465l-.005.004c-.362.317-.72.702-1.066 1.17-.207.28-.4.558-.58.83-1.353 1.738-3.06 4.19-3.17 5.616 0 0 .388-.365.98-.89-.548 1.932-.935 4.825.94 6.49 0 0-.16-.54-.298-1.282 1.066 2.446 2.967 3.74 2.967 3.74l1.635 1.03s-.22-.468-.473-1.118c.62.307 1.33.54 2.103.682l.04.008c.002.005.004.01.005.017l.007-.016c.07-.174.133-.382.183-.617.024-.106.045-.218.062-.337v.002c.005-.03.01-.062.013-.092l.017-.102-.03-.01c-.607-.195-1.22-.5-1.753-.903-.52-.337-.992-.744-1.373-1.22-.013-.11-.02-.22-.02-.322-.003-.083 0-.16.002-.242.006-1.132.176-2.15.457-3.064.89-2.897 2.89-4.728 4.283-5.7.01-.007.02-.015.032-.022s.02-.014.03-.02v-.29c.037-.29.117-.743.285-1.213.172-.486.438-.987.848-1.338 4.986.577 5 5.06 4.746 8.052.365-.65 1.34-.53 1.535.292.03.13.043.275.03.44-.018.196-.085.374-.182.535-.316.523-.96.85-1.343.974-.188.06-.314.076-.31.04-.1.526-.298 1.003-.566 1.434-.51.815-1.273 1.46-2.13 1.93-.41.265-.858.477-1.317.63l-.028.008h-.002l.03.198v.002c.012.09.028.174.045.255.056.274.124.51.205.707 0 .007-.004.017-.005.024h.014l.047-.008c.938-.14 1.718-.404 2.354-.87-.215.658-.385 1.12-.385 1.12l1.408-1.06s.812-.74 1.562-2.68l-.233 1.502c2.483-3.37 1.212-7.784 1.212-7.784l-.004.006z"/></svg>