<svg xmlns="http://www.w3.org/2000/svg" xmlns:xlink="http://www.w3.org/1999/xlink" width="29" height="29" viewBox="0 0 29 29"><path fill="#867096" d="M-.232-.746h29.707v30.792H-.232z"/><path fill="#3A2817" d="M20.46 18.678c-.196-1.124-.077-.717.17-1.74l-.083.056c.365-1.035.572-2.18.572-3.39 0-4.583-2.927-8.3-6.535-8.3s-6.533 3.717-6.533 8.3c0 1.196.2 2.327.56 3.353-.02-.01-.03-.02-.03-.02.247 1.024.367.617.17 1.74-.168.973-.667 1.228-.667 1.228s.772-.37.958-.622c.09-.123.33-.46.405-.563l.005.01c-.043.11-.145.47-.002 1.167.187.91.952 1.524.952 1.524s-.46-.724-.33-1.516c0 0-.03.318.718 1.2.746.884 2.138 1.66 2.138 1.66s-.027-.55-.043-1.152c.543.186 1.11.292 1.7.292.604 0 1.188-.11 1.742-.307-.016.61-.043 1.166-.043 1.166s1.395-.775 2.138-1.658c.746-.883.72-1.2.72-1.2.126.79-.332 1.516-.332 1.516s.767-.612.95-1.523c.176-.852-.015-1.208-.018-1.208.003 0 .32.447.43.592.185.25.956.622.956.622s-.5-.254-.67-1.226"/><path fill="#E2BF9C" d="M14.634 18.3v11.707H8.268l-.157-.066c0-5.808 3.337-6.646 3.838-6.737l.06-.01c.39 0 .64-.503.805-1.26.028-.117.05-.237.068-.367.036-.213.066-.443.09-.68.015-.142.027-.285.04-.433.058-.717.075-1.5.075-2.24 0 .002.856.086 1.55.086"/><path fill="#F2D1AC" d="M21.178 29.94s-.057.023-.15.067h-6.394V18.3h.014c.69 0 1.552-.085 1.552-.085 0 .736.02 1.508.078 2.223l.04.422c.025.245.053.48.09.697v.004c.012.1.03.19.047.278.167.81.425 1.354.827 1.354 0 0 .062.007.165.03 0 0 .005.004.005 0 .753.18 3.726 1.233 3.726 6.72"/><defs><path id="a" d="M12.88 20.438h3.527v2.085H12.88z"/></defs><clipPath id="b"><use xlink:href="#a" overflow="visible"/></clipPath><path clip-path="url(#b)" fill="#C09A80" d="M16.407 21.558v.004c-.157.252-.698.96-1.764.96h-.01c-1.014-.004-1.603-.74-1.754-.956.035-.213.066-.44.088-.677.015-.144.027-.287.04-.435.495.125 1.03.2 1.608.21h.018c.59-.01 1.134-.09 1.643-.228.015.143.027.286.04.425.026.245.053.478.09.696"/><path fill="#D3A789" d="M14.593 4.868c-6.743 0-6.78 5.646-6.482 9.34-.46-.876-1.83-.603-1.718.775.11 1.33 2.042 2.017 2.015 1.86.554 3.043 3.727 4.798 6.187 4.798h.053V4.87l-.054-.002"/><path fill="#C09A80" d="M6.823 14.4c.334-.532.847-.303.975-.187.133.13.24.298.157.613-.047.177-.232.19-.188.46.05.303.188.32.27.39.08.07.178.122.23.25.047.126.056.262.028.38-.052.218-.37.043-.582-.052-.14-.064-.585-.44-.696-.568-.285-.317-.416-.932-.194-1.287"/><path fill="#E0B89B" d="M14.627 4.868c6.744 0 6.782 5.646 6.48 9.34.465-.876 1.833-.603 1.72.775-.107 1.33-2.04 2.017-2.014 1.86-.553 3.043-3.726 4.798-6.187 4.798h-.053V4.87l.054-.002"/><path fill="#C09A80" d="M22.397 14.4c-.333-.532-.848-.303-.975-.187-.133.13-.24.298-.158.613.047.177.233.19.188.46-.05.303-.19.32-.27.39-.077.07-.177.122-.228.25-.048.126-.058.262-.03.38.053.218.37.043.583-.052.14-.064.586-.44.696-.568.285-.317.417-.932.194-1.287"/><path fill="#E2BF9C" d="M14.592 6.472c-2.22 0-3.842.645-4.826 1.917-1.373 1.774-1.32 4.49-.814 6.437.154.595.234 2.2.342 2.79.478 2.633 3.385 4.037 5.3 4.037l.05-.002V6.475l-.052-.003"/><path fill="#F2D1AC" d="M19.408 8.394c-.977-1.265-2.582-1.908-4.765-1.92v15.177c2.185-.022 4.797-1.56 5.247-4.035.106-.588.186-2.193.34-2.79.505-1.94.555-4.65-.822-6.43"/><path fill="#DDD" d="M21.178 29.94s-.057.022-.15.067H8.268l-.157-.068c0-5.903 3.338-6.756 3.838-6.847.816.93 2.602 2.563 2.602 2.563s1.835-1.55 2.6-2.26c.04-.036.08-.067.11-.103.085-.078.152-.14.187-.182h.005c.12.03.29.08.496.165.035.014.07.032.11.05.23.104.495.254.768.458.04.028.077.055.112.086 1.06.833 2.24 2.56 2.24 6.07"/><path fill="#7E6052" d="M17.118 22.214c.056.043.685 1.392.796 1.67.112.278 0 1.1 0 1.1s-.084-.44-.336-.557c-.25-.118-.78-.177-.99-.075-.21.102-1.203.88-1.385 1.013-.182.132-.362.345-.362.418v4.224h-.433l.027-4.196.475-1.49 1.735-1.688s-.104-.432-.12-.49c-.01-.04.537.028.593.072"/><path fill="#7E6052" d="M12.13 22.284c-.057.046-.686 1.393-.796 1.672-.113.28 0 1.1 0 1.1s.084-.442.335-.557c.25-.12.78-.178.99-.074.21.103 1.203.878 1.385 1.01.182.132.796.557.796.557l-.613-1.673-1.62-1.626s.14-.445.138-.48c-.005-.044-.56.027-.614.07"/><path fill="#3A2817" d="M8.618 17.215c-.13 0 .01-.83-.426-1.4-.434-.573-1.097-2.498-1.097-4.42 0-1.92.567-3.63 2.046-5.447 1.48-1.818 3.652-2.7 3.652-2.7l-1 1.09s.54-.886 2.475-1.594c1.528-.558 2.517.064 2.517.064s-1.006-.04-1.312.482c-.077.133-.36.335-.36.335s.47-1.254 2.645-.215c2.173 1.04 2.135 2.9 3.646 3.47 1.55.587 1.997-.165 1.997-.165s-.672 1.317-1.864 1.32c-.23 0-.213-.006-.213-.006s.446 1.41.532 2.463c.088 1.075-.186 1.81-.27 3.82-.072 1.718-.466.838-.934 2.105-.155.425-.162.902-.162.902-.175.05-.628-1.03-.303-2.91.214-1.22-.838-5.843-3.372-4.942-1.55.552-1.942 1.675-3.1.678-1-.86-2.398-1.354-3.44-.675-1.045.682-1.633 2.21-1.45 4.65.23 3.118-.205 3.095-.205 3.095z"/></svg>