<svg xmlns="http://www.w3.org/2000/svg" xmlns:xlink="http://www.w3.org/1999/xlink" width="29" height="29" viewBox="0 0 29 29"><path fill="#F6F0D7" d="M-29.512-.285H.195v29.71h-29.707z"/><path fill="#4AC2EF" d="M.197-.265h29.71v29.708H.196z"/><path fill="#E2BF9C" d="M14.846 17.732v11.71H8.48c-.103-.046-.157-.068-.157-.068 0-6.28 3.896-6.75 3.896-6.75h.03c.028-.003.058-.008.085-.018.295-.08.504-.49.65-1.09.015-.046.028-.097.037-.15.028-.117.05-.237.066-.367.036-.214.067-.44.092-.68.012-.14.026-.284.04-.43.057-.72.075-1.502.075-2.242.002 0 .857.084 1.55.084"/><path fill="#F2D1AC" d="M21.39 29.375s-.058.022-.152.068h-6.392v-11.71h.014c.692 0 1.552-.084 1.552-.084 0 .734.02 1.507.077 2.222.01.143.026.286.04.424.025.246.053.477.088.695v.006c.014.097.03.188.05.277.018.086.035.17.057.246.13.53.308.914.558 1.053.023.01.045.022.07.027.043.018.092.027.14.027 0-.002 3.897.467 3.897 6.748"/><defs><path id="a" d="M13.09 19.873h3.526v2.084H13.09z"/></defs><clipPath id="b"><use xlink:href="#a" overflow="visible"/></clipPath><path clip-path="url(#b)" fill="#C09A80" d="M16.616 20.993v.004c-.156.25-.696.96-1.76.96h-.01c-1.017-.004-1.605-.742-1.757-.956.035-.212.065-.44.09-.678.013-.143.025-.284.04-.43.494.124 1.03.2 1.607.208h.018c.588-.01 1.133-.09 1.64-.228.015.143.03.286.043.425.025.246.052.478.088.696"/><path fill="#D3A789" d="M14.84 5.15c-6.645-.012-6.683 5.327-6.388 8.808-.456-.817-1.803-.513-1.693.795.106 1.253 2.01 1.82 1.983 1.683.543 2.84 3.675 4.413 6.097 4.638h.05V5.15h-.05"/><path fill="#C09A80" d="M7.093 14.2c.334-.506.85-.288.974-.177.134.12.24.282.16.58-.05.17-.234.18-.19.437.05.29.19.307.272.373.077.066.176.114.226.236.048.12.057.25.03.36-.05.208-.37.043-.58-.05-.143-.06-.586-.417-.7-.538-.284-.3-.414-.885-.193-1.222"/><path fill="#E0B89B" d="M14.873 5.15c6.644-.012 6.683 5.327 6.386 8.808.455-.817 1.804-.513 1.692.795-.105 1.253-2.01 1.82-1.984 1.683-.543 2.84-3.675 4.413-6.095 4.638h-.05V5.15h.05"/><path fill="#C09A80" d="M22.666 14.2c-.334-.506-.847-.288-.975-.177-.133.12-.24.282-.156.58.047.17.232.18.187.437-.05.29-.187.307-.27.373-.076.066-.176.114-.226.236-.05.12-.06.25-.03.36.053.208.368.043.582-.05.14-.06.586-.417.696-.538.285-.3.417-.885.194-1.222"/><path fill="#E2BF9C" d="M14.804 6.66c-2.22 0-3.84.612-4.825 1.822-1.373 1.686-1.32 4.263-.813 6.11.152.566.233 2.09.34 2.65.48 2.5 3.385 3.832 5.298 3.832h.054V6.663c-.022 0-.038-.003-.056-.003"/><path fill="#F2D1AC" d="M19.62 8.485c-.977-1.202-2.58-1.812-4.763-1.822v14.41c2.184-.024 4.796-1.482 5.245-3.832.106-.558.186-2.082.342-2.647.504-1.843.553-4.416-.823-6.108"/><path fill="#C7696E" d="M15.975 18.815s-.502.535-1.12.535c-.62 0-1.093-.524-1.093-.524s.473-.083 1.094-.083c.617 0 1.12.072 1.12.072"/><path fill="#D87373" d="M15.17 18.567c-.174 0-.312.11-.314.243-.006-.134-.145-.243-.32-.243s-.8.248-.8.248.61.063.784.063c.176 0 .33.07.336-.06.002.13.127.078.302.078.174 0 .817-.082.817-.082s-.628-.247-.805-.247"/><path fill="#F6F0D7" d="M21.398 29.375s-.06.022-.15.068H8.47l-.155-.068c0-.768.057-1.45.16-2.055.737-4.342 3.742-4.703 3.742-4.703h.03c.027-.004.058-.01.085-.018.297-.084.494-.764.643-1.36 0 0 1.39.444 1.854.444.47 0 1.887-.445 1.887-.445.13.53.32 1.184.57 1.323.022.01.045.023.067.027.044.018.093.027.143.027 0 0 3.9.467 3.9 6.758"/><path fill="#E2BF9C" d="M10.086 27.32v2.123H8.48l-.157-.068c0-.768.058-1.45.16-2.053h1.603zM19.626 27.32v2.123h1.607c.103-.046.156-.068.156-.068 0-.768-.06-1.45-.162-2.053h-1.602z"/><g fill="#27170F"><path d="M10.64 12.774c-.003.01-.002.01 0 0z"/><path d="M21.417 7.292c-.57-.875-.61-.628-.61-.628s.57-2.39-2.982-2.917c-.59-.088-1.396-.04-1.396-.04l.483.49s-1.87-.64-4.34-.257c-1.797.278-3.024 1.162-4.04 2.603-.68.963-.89 2.386-.89 2.386l.93-1.24c-.475.73-1.19 2.203-.93 4.183.55 4.163 2.48 4.935 2.48 4.935s-1.328-2.495-.45-4.11c1.473-2.715 4.098-2.795 4.098-2.795s-2.453.218-3.127 2.858l-.004.015c.023-.08.28-.802 1.243-1.173.582-.223 1.347-.217 2.22-.445-.82 1.054-.928 2.158-.928 2.158s.772-1.246 2.663-1.958c.11-.04.23-.086.353-.133-.556.718-.357 1.928-.178 2.167 0 0-.065-1.088 2.31-1.77 1.368-.393 1.587-1.167 1.587-1.167s-.01.768.175 1.257c.213.57.817.94.86 1.453.08.956-.435 2.745-.435 2.745l.77-.603c.397-1.392.77-3.725.77-4.8s-.2-2.548-.633-3.213z"/></g></svg>