<svg xmlns="http://www.w3.org/2000/svg" xmlns:xlink="http://www.w3.org/1999/xlink" width="29" height="29" viewBox="0 0 29 29"><path fill="#81CDF2" d="M-.16-.24H29.55v29.706H-.16z"/><path fill="#E2BF9C" d="M14.51 17.755v11.71H8.145L7.99 29.4c0-.53.025-1.02.084-1.47.55-4.886 3.812-5.28 3.812-5.28h.03c.03-.004.06-.008.086-.017.322-.087.54-.562.688-1.24.005-.017.01-.035.013-.057l.024-.116.03-.193c.035-.213.067-.443.09-.68.012-.142.025-.286.04-.43.058-.72.073-1.5.073-2.242 0 0 .857.083 1.55.083"/><path fill="#F2D1AC" d="M21.052 29.4s-.057.02-.15.066h-6.39v-11.71h.013c.69 0 1.553-.085 1.553-.085 0 .737.016 1.51.076 2.225l.04.424c.025.245.052.477.088.697v.002c.014.1.032.187.048.276.137.656.33 1.14.617 1.3.023.008.045.022.066.026.045.018.096.027.143.027 0 0 3.896.467 3.896 6.75"/><defs><path id="a" d="M12.755 19.897h3.526v2.084h-3.525z"/></defs><clipPath id="b"><use xlink:href="#a" overflow="visible"/></clipPath><path clip-path="url(#b)" fill="#C09A80" d="M16.28 21.017v.004c-.155.25-.695.96-1.763.96h-.01c-1.013-.004-1.603-.742-1.753-.955.036-.213.065-.443.09-.678l.04-.432c.495.124 1.03.2 1.604.208h.02c.59-.01 1.135-.09 1.645-.227.013.143.024.286.037.422.03.25.055.48.09.7"/><path fill="#D3A789" d="M14.503 5.172c-6.644-.01-6.68 5.328-6.386 8.81-.455-.818-1.804-.514-1.693.794.108 1.253 2.01 1.82 1.984 1.683.543 2.835 3.675 4.41 6.095 4.636h.05V5.176c-.015 0-.032-.004-.05-.004"/><path fill="#C09A80" d="M6.758 14.225c.334-.506.847-.29.976-.177.133.12.24.282.156.58-.047.17-.233.18-.188.437.05.29.19.307.27.373.08.062.177.113.228.235.048.12.056.25.03.36-.052.208-.37.044-.582-.05-.14-.058-.585-.417-.698-.537-.284-.302-.413-.885-.192-1.22"/><path fill="#E0B89B" d="M14.538 5.172c6.643-.01 6.68 5.328 6.385 8.81.457-.818 1.8-.514 1.69.794-.104 1.253-2.01 1.82-1.98 1.683-.544 2.835-3.675 4.41-6.095 4.636h-.053V5.176c.018 0 .036-.004.053-.004"/><path fill="#C09A80" d="M22.33 14.225c-.335-.506-.85-.29-.974-.177-.135.12-.24.282-.158.58.047.17.234.18.188.437-.05.29-.19.307-.27.373-.08.063-.178.114-.23.236-.046.12-.054.25-.026.36.05.208.367.044.58-.05.14-.058.586-.417.697-.537.284-.303.413-.886.192-1.222"/><path fill="#E2BF9C" d="M14.47 6.685c-2.22 0-3.842.61-4.826 1.82-1.372 1.687-1.32 4.264-.813 6.112.154.565.236 2.09.342 2.648.48 2.502 3.385 3.833 5.298 3.833l.05-.002V6.686h-.05"/><path fill="#F2D1AC" d="M19.282 8.506c-.977-1.2-2.578-1.81-4.76-1.82v14.41c2.184-.022 4.795-1.48 5.244-3.83.107-.56.184-2.084.342-2.65.504-1.843.553-4.416-.826-6.11"/><path fill="#C7696E" d="M15.638 18.84s-.5.535-1.12.535c-.618 0-1.09-.524-1.09-.524s.472-.082 1.09-.082c.62 0 1.12.07 1.12.07"/><path fill="#D87373" d="M14.836 18.59c-.177 0-.314.107-.318.244-.002-.137-.14-.243-.315-.243-.176 0-.805.25-.805.25s.613.062.787.062c.176 0 .33.068.333-.06.004.128.13.078.304.078s.816-.082.816-.082-.628-.247-.802-.247"/><path fill="#050606" d="M14.958 25.145v.075c-.012 1.242-.02 3.545-.022 4.247h-5.63l-.122-1.474s-.722-.047-1.11-.065c-.02 0-.055-.073-.09-.194-.012-.032-.02-.07-.03-.116-.19-.707-.41-2.49.424-3.794.275-.43 1.17-.656 1.17-.656s.536-.38 1.522-.46c.565-.044.808-.05.955-.13.036-.016.06-.04.09-.07.048-.05.083-.12.133-.216.125-.254.208-.543.275-.76.02-.056.033-.11.05-.158v-.007c.03-.093.06-.15.085-.15h.068l-.024.116c.112.134.192.383.696.646.506.267.675.235.896.67.143.286.198.883.218 1.312.005.098.01.186.01.263.004.048.004.088.004.125 0 .03-.005.052-.005.07 0 .04.394.286.435.656.003.024.003.046.003.07"/><path fill="#050606" d="M20.94 27.927c-.387.016-1.113.065-1.113.065l-.12 1.474h-5.626c-.003-.595-.008-2.336-.017-3.608v-.138c0-.21-.004-.407-.004-.575-.007-.406.437-.68.437-.725-.006-.066-.006-.24.006-.458.02-.43.078-1.026.22-1.313.22-.435.39-.403.894-.67.504-.264.584-.514.695-.647l-.023-.116h.067c.08 0 .18.597.41 1.074.05.096.09.167.135.217.025.032.05.052.084.07.146.082.39.086.96.13.985.08 1.52.46 1.52.46s.897.227 1.173.656c1.056 1.656.412 4.093.3 4.104"/><path fill="#FDB515" d="M14.31 24.005v.123l-.062-.01c-.31-.048-1.678-.562-2.244-1.54.036-.017.063-.04.09-.07.486.855 1.677 1.386 2.105 1.486 0-.415 0-.93-.19-1.32-.07-.145-.37-.288-.638-.417-.197-.093-.383-.18-.508-.277-.147-.11-.274-.272-.36-.447.017-.057.03-.11.048-.16.072.196.214.39.38.52.116.087.307.176.49.267.308.146.603.284.693.468.196.414.196.95.196 1.377M9.14 27.688l-.008.11-1.17-.065c-.012-.032-.02-.07-.03-.116l1.21.07zM14.724 24.005v.123l.062-.01c.313-.048 1.68-.562 2.245-1.54-.034-.017-.06-.04-.087-.07-.488.855-1.678 1.386-2.106 1.486 0-.415 0-.93.188-1.32.07-.145.37-.288.64-.417.193-.093.382-.18.508-.277.146-.11.277-.272.36-.447-.018-.057-.032-.11-.05-.16-.07.196-.213.39-.38.52-.115.087-.307.176-.49.267-.31.146-.602.284-.692.468-.196.414-.196.95-.196 1.377M19.872 27.688l.008.11 1.17-.065c.014-.032.02-.07.03-.116l-1.208.07z"/><path fill="#FDB515" d="M14.48 24.264c-.293 0-.534-.12-.66-.228l.282-.344c.04.03.387.29.82-.04l.27.355c-.246.19-.494.257-.71.257"/><path fill="#FDB515" d="M15.112 24.005c-.19.11-.39.225-.588.345-1.836 1.08-4.046 2.537-4.796 4.678-.054.148-.09.292-.12.438h-.11c.03-.156.07-.317.123-.475.77-2.2 3.037-3.673 4.9-4.765.18-.11.364-.21.537-.313l.055.093z"/><path d="M19.35 7.552c.46-.168 1.04-.304 1.063-1.095.025-.79.605-1.396-.145-2.243s-1.645-1.306-1.645-1.306-.822-.387-1.428-.532c-.604-.146-.793-.244-1.33 0-.935.424-1.062.556-1.498 1.355-.437.8-.63.774-.704 1.257-.07.486-.53.75 0 .944.535.194.632.85 1.188.992.557.145 4.426.63 4.426.63h.073z"/><path d="M21.216 13.402c-.14.13-.293.302-.398.574-.215.56-.3.464-.3.464s.34-2.18.34-2.79c0-.6-1.94-3.26-3.026-3.62-1.088-.357-2.09.392-3.256.392h-.094c-1.144-.023-2.132-.745-3.2-.393-1.084.36-3.028 3.02-3.028 3.62 0 .61.338 2.79.338 2.79s-.08.095-.297-.464c-.125-.322-.322-.506-.48-.638-.29-3.778-.123-9.344 6.686-9.344h.04c6.842 0 6.977 5.63 6.676 9.408"/></svg>