<svg xmlns="http://www.w3.org/2000/svg" xmlns:xlink="http://www.w3.org/1999/xlink" width="29" height="29" viewBox="0 0 29 29"><path fill="#E07457" d="M-.158-.727h29.706v30.792H-.158z"/><path fill="#493528" d="M15.638 17.945l1.1.722c-.09-.647-.095-1.33-.095-1.33l1.813 1.193c.004-.023.004-.048.008-.07.068-.416.55-1.463.55-1.463l.952 1.077c.08 2.655-1.854 4.403-1.854 4.403s.463-.817.445-1.637c-.006-.26-.027-.527-.053-.788-.246.583-.67 1.285-1.445 1.923 0 0 .06-.286.106-.663-.256.418-.61.856-1.11 1.27 0 0 .372-1.713-.04-2.33-.368-.55-.378-2.307-.378-2.307M13.407 17.93l-1.102.722c.09-.647.095-1.33.095-1.33l-1.814 1.194c-.002-.023-.004-.048-.008-.07-.067-.416-.55-1.463-.55-1.463l-.95 1.077c-.08 2.655 1.853 4.403 1.853 4.403s-.464-.818-.445-1.638c.005-.26.028-.526.053-.788.245.583.672 1.285 1.444 1.923 0 0-.062-.286-.106-.663.255.418.61.856 1.11 1.27 0 0-.372-1.712.04-2.33.37-.55.38-2.307.38-2.307"/><path fill="#E2BF9C" d="M14.487 18.354v11.71H8.122c-.102-.045-.156-.066-.156-.066 0-6.283 3.896-6.75 3.896-6.75.388 0 .638-.5.804-1.26.027-.115.048-.237.065-.364.037-.216.068-.443.093-.68l.04-.433c.057-.72.075-1.5.075-2.24 0 0 .857.084 1.55.084"/><path fill="#F2D1AC" d="M21.03 30s-.06.02-.15.065h-6.393v-11.71h.014c.693 0 1.554-.084 1.554-.084 0 .737.02 1.51.076 2.224.014.144.025.287.04.426.027.245.053.477.09.697v.004c.013.1.03.188.05.276.163.808.422 1.353.822 1.353 0-.003 3.898.465 3.898 6.75"/><defs><path id="a" d="M12.734 20.492h3.524v2.085h-3.524z"/></defs><clipPath id="b"><use xlink:href="#a" overflow="visible"/></clipPath><path clip-path="url(#b)" fill="#C09A80" d="M16.26 21.615v.004c-.158.25-.697.957-1.763.957h-.01c-1.013-.004-1.604-.74-1.753-.954.033-.216.064-.443.09-.68l.038-.433c.495.125 1.032.2 1.606.208h.02c.59-.01 1.133-.09 1.642-.228.014.144.025.287.04.426.027.247.055.48.09.7"/><path fill="#D3A789" d="M14.505 4.924c-6.742 0-6.78 5.645-6.48 9.34-.463-.874-1.83-.604-1.72.774.11 1.33 2.042 2.017 2.015 1.86.553 3.043 3.726 4.798 6.186 4.798.02 0 .037-.004.053-.004V4.926l-.055-.002"/><path fill="#C09A80" d="M6.736 14.455c.335-.532.847-.302.975-.187.135.13.242.297.158.613-.047.178-.23.19-.188.46.05.303.19.32.27.392.078.068.177.12.228.248.05.13.057.264.03.38-.053.22-.37.044-.58-.05-.142-.064-.588-.44-.698-.57-.285-.316-.415-.93-.194-1.285"/><path fill="#E0B89B" d="M14.54 4.924c6.742 0 6.78 5.645 6.48 9.34.463-.874 1.828-.604 1.72.774-.112 1.33-2.042 2.017-2.015 1.86-.555 3.043-3.727 4.798-6.186 4.798-.017 0-.038-.004-.054-.004V4.926l.054-.002"/><path fill="#C09A80" d="M22.31 14.455c-.336-.532-.85-.302-.977-.187-.133.13-.24.297-.156.613.047.178.232.19.186.46-.047.303-.188.32-.27.392-.078.068-.178.12-.225.248-.047.13-.06.264-.03.38.05.22.368.044.58-.05.14-.064.585-.44.696-.57.285-.316.416-.93.196-1.285"/><path fill="#E2BF9C" d="M14.448 6.516c-2.22 0-3.843.645-4.827 1.917-1.37 1.775-1.32 4.49-.81 6.438.15.596.232 2.2.34 2.79.478 2.634 3.385 4.037 5.3 4.037l.05-.002V6.515h-.052"/><path fill="#F2D1AC" d="M19.263 8.435c-.977-1.262-2.582-1.908-4.764-1.918v15.178c2.183-.025 4.794-1.56 5.243-4.035.107-.588.186-2.194.342-2.79.506-1.944.555-4.653-.822-6.435"/><path d="M21.02 30s-.06.02-.15.065H8.11C8.008 30.02 7.954 30 7.954 30c0-.77.06-1.452.16-2.055.737-4.336 3.738-4.697 3.738-4.697h.03c.026-.004.06-.01.085-.018.294-.08.492.132.64-.466l1.854 3.31 1.884-3.31c.128.532.316.29.566.43.023.008.047.022.07.026.043.018.092.027.14.027 0 0 3.9.468 3.9 6.752"/><path fill="#42698E" d="M11.943 23.164c-.026.01-.06.016-.085.018h-.033s-3.027.366-3.77 4.742c-.105.61-.163 1.3-.163 2.073l.157.068h4.603l-.063-7.37c-.15.602-.35.39-.647.47M21.15 29.996c0-6.34-3.935-6.814-3.935-6.814-.05 0-.098-.01-.143-.025-.023-.005-.045-.018-.068-.027-.252-.14-.442.1-.574-.436l-.09 7.37h4.658c.095-.044.153-.068.153-.068"/><path fill="#375670" d="M9.5 28.85c-.158-.147.002-2.412.002-2.412l1.185-.113 1.186.113s.143 2.248.002 2.412c-.373.43-1.955.393-2.375 0"/><path fill="#3C5E7F" d="M9.428 26.163v.49h.002l1.257 1 1.256-1h.003v-.49"/><path fill="#424343" d="M10.83 27.226c0 .082-.065.147-.146.147-.082 0-.148-.065-.148-.147 0-.082.066-.147.148-.147.08 0 .147.065.147.146"/><path fill="#F9F9FA" d="M13.225 23.572s-.508-1.39-.543-1.7c0 0-.137.287-.283.614-.09.198-.335.43-.438.68-.272.662-.577 3.244-.577 3.244l.98-.95s1.473-.11 2.12.675c.163.2-1.26-2.563-1.26-2.563"/><path fill="#F9F9FA" d="M15.762 23.572s.52-1.39.554-1.7c0 0 .14.287.29.614.09.198.343.43.446.68.275.662.58 3.244.58 3.244l-.99-.95s-1.505-.11-2.17.675c-.166.2 1.29-2.563 1.29-2.563"/><path fill="#070808" d="M21.374 13.982c-.04-.048-.76-.11-1.7-.167-.798-.045-2.073-.016-2.575.03-.204.015-.58.06-.95.12-.417.07-.824.157-.996.18-.163.02-.292.03-.427.026h-.06v.002c-.135.003-.265-.005-.428-.026-.174-.023-.582-.11-.997-.18-.37-.06-.746-.105-.952-.12-.5-.046-1.777-.075-2.572-.03-.94.056-1.662.12-1.698.167-.025.032-.084.46-.008.506.076.043.342.137.408.287.062.15.323 1.238.906 1.535.96.49 4.182.51 4.74-1.273.074-.244.176-.387.35-.427.07-.014.174-.026.28-.028.107.002.21.014.28.028.175.04.275.183.352.426.557 1.783 3.777 1.762 4.738 1.272.582-.297.842-1.384.908-1.535.064-.15.33-.244.404-.288.078-.047.02-.476-.004-.508zM13.558 15.2c-.5 1.397-2.93 1.236-3.516 1.125-.26-.048-1.013-.23-1.136-1.37-.084-.788.526-.835 1.39-.904.702-.052 1.323-.03 1.745.004.424.034 1.407.16 1.504.375.098.217.123.463.014.77zm6.925-.243c-.12 1.138-.875 1.32-1.133 1.37-.588.11-3.017.27-3.518-1.126-.107-.306-.084-.552.014-.77.1-.213 1.08-.34 1.504-.374.42-.033 1.043-.056 1.744-.003.866.067 1.475.115 1.39.904z"/><path fill="#493528" d="M12.298 4.606c-.37-.195-1.95-.796-1.95-.796s.536.318.603.6c.068.283-3.57 1.602-4.077 5.204-.504 3.602.782 5.037.782 5.037l-.24-2.513s-.1 1.128 0 2.012c.103.88.404 1.904 0 2.93-.403 1.023-.57 1.1-.57 1.1s1.203-1.09 1.438-1.784c.404-1.2.24-1.7.377-2.373.135-.67.238-2.478.238-2.478s-.6 1.46.103 2.893c.214.438.49.743.49.743s-.425-.907-.344-1.868c.054-.602.434-.695 1.277-2.902.397-1.047.06-3.06-.01-2.568-.065.488-.116 1.712.305 2.325.634.927 1.553 1.233 1.553 1.233s-1.003-.738-1.014-2.046c-.008-.707.27-1.27.27-1.27s-.26 1.472 2.07 2.352c.673.255 1.194.084 1.194.084s-.97-.542-.976-1.483c0 0 1.467 1.803 4.14 2.4 1.034.23 1.735.167 1.735.167s.106-.214.073.78c-.033.998-.215 1.422-.46 1.765-.1.137-.407.395-.407.395s.773-.272 1.258-1.21c.332-.643.225-1.51.225-1.51s.1 1.057 0 2.508c-.146 2.096-.91 3.01-.91 3.01s.753-.614 1.235-1.84c.365-.94.277-1.524.277-1.524s-.062 1.466 1.717 2.457c0 0-.5-.327-.74-1.962-.302-2.078.216-3.696-.187-5.32-.404-1.624-.514-1.783-1.188-2.664-.672-.883-1.32-1.593-3.14-2.176-1.814-.584-2.2-.386-2.895-.377-1.107.014-1.815.51-1.815.51s-.102-.364.066-.86c.17-.493.305-.728.305-.728s-.442.647-.537.81c-.394.668-.27.936-.27.936"/></svg>