<?xml version="1.0" encoding="utf-8"?>
<!-- Generator: Adobe Illustrator 19.0.1, SVG Export Plug-In . SVG Version: 6.00 Build 0)  -->
<!DOCTYPE svg PUBLIC "-//W3C//DTD SVG 1.1//EN" "http://www.w3.org/Graphics/SVG/1.1/DTD/svg11.dtd">
<svg version="1.1" id="Layer_1" xmlns="http://www.w3.org/2000/svg" xmlns:xlink="http://www.w3.org/1999/xlink" x="0px" y="0px"
	 viewBox="0 0 22.6 26.8" enable-background="new 0 0 22.6 26.8" xml:space="preserve">
<g>
	<path fill="none" stroke="#999999" stroke-linecap="round" stroke-miterlimit="10" d="M8.3,12.6c-0.5,0.2-1.1,0.2-1.7,0.2
		c-3.2,0-5.9-2.6-5.9-5.9s2.6-5.9,5.9-5.9s5.9,2.6,5.9,5.9c0,1.4-0.5,2.7-1.3,3.7"/>
	<path fill="none" stroke="#999999" stroke-linecap="round" stroke-miterlimit="10" d="M12.5,5.4c2.8,0.1,3.8,1.4,5.4,4.9
		s0.5,8.6,0.5,8.6l1.9-0.7l1.4,3l-7,4.5l-2.4-2.5l1.2-1.1l-1-1.9c-3-2.4-1.8-5.1-1.8-5.1S7,11.2,7.9,10.2s1.4-1.8,3.2,0.6
		c1.8,2.3,2.4,2.8,2.4,2.8s0.9-2.2,0.6-3.9l-1.6-1.1"/>
</g>
</svg>
