<svg xmlns="http://www.w3.org/2000/svg" width="448.896" height="93.18" viewBox="0 0 448.896 93.18"><path fill="#DE5947" d="M364.014 93.18h84.883l-21.133-27 21.133-27H354.22v44.203c0 5.39 4.41 9.796 9.794 9.796"/><path fill="#873933" d="M354.22 54h39.684c5.388 0 9.795 4.406 9.795 9.794 0 5.39-4.408 9.795-9.796 9.795h-29.89c-5.39 0-9.795 4.406-9.795 9.794V54"/><path fill="#EE826D" d="M393.903 0h-39.685v54h39.685c5.39 0 9.795 4.406 9.795 9.794v-54c0-5.387-4.407-9.794-9.795-9.794z"/><g><path fill="#DE5947" d="M84.883 93.18H0l21.133-27L0 39.18h94.68v44.203c-.002 5.39-4.41 9.796-9.797 9.796"/><path fill="#873933" d="M94.678 54H54.993c-5.387 0-9.795 4.406-9.795 9.794 0 5.39 4.408 9.795 9.795 9.795h29.89c5.39 0 9.798 4.406 9.798 9.794-.002-9.795-.002-19.59-.002-29.384"/><path fill="#EE826D" d="M54.993 0c-5.387 0-9.795 4.407-9.795 9.794v54c0-5.388 4.408-9.794 9.795-9.794H94.68V0H54.993z"/></g><g><path fill="#EE826D" d="M94.678 0h259.54v54H94.68z"/><path fill="none" d="M94.678 6.424h259.54V46.59H94.68z"/><text transform="translate(130 20)" fill="#FFF" font-family="'Raleway-ExtraBold'" font-size="16">NEVER MISS A MESSAGE</text><text transform="translate(120 40)" fill="#FFF" font-family="'Raleway-ExtraBold'" font-size="16">WITH THE TRIPALOCAL APP</text></g></svg>