<svg xmlns="http://www.w3.org/2000/svg" xmlns:xlink="http://www.w3.org/1999/xlink" width="27" height="27" viewBox="0 0 27 27"><path fill="none" stroke="#999" stroke-linecap="round" stroke-miterlimit="10" d="M15 20.5h-3M3.25 20.5c-1.104 0-1.75-.896-1.75-2v-10c0-1.104.896-2 2-2h20c1.104 0 2 .896 2 2v10c0 1.104-.896 2-2 2"/><path fill="none" stroke="#999" stroke-linecap="round" stroke-miterlimit="10" d="M3.5 8.5h5v5h-5zM11.5 8.5h5v5h-5zM18.5 8.5h5v5h-5z"/><circle fill="none" stroke="#999" stroke-linecap="round" stroke-miterlimit="10" cx="7.707" cy="20.124" r="2.625"/><circle fill="none" stroke="#999" stroke-linecap="round" stroke-miterlimit="10" cx="19.707" cy="20.124" r="2.625"/><defs><path id="g" d="M46.82 28.477c-.576 0-3.626-.063-5.076-.063-6.282 0-10.844 3.26-10.844 9.34 0 3.354 1.782 5.79 2.658 6.457.15.128.302.16.453.16.696 0 1.45-1.046 1.45-1.868 0-.317-.12-.54-.453-.444-.786-.823-1.722-2.12-1.722-4.305 0-4.907 3.415-6.522 7.16-6.838V48.39c0 1.614-.242 2.31-.786 2.31-.303 0-.515-.253-.515.16 0 .6 1.208 1.835 1.963 1.835.998 0 1.693-1.108 1.693-3.894V30.85c1.42.034 3.504.096 3.927.096.785 0 1.18-.918 1.18-1.678 0-.474-.183-1.044-.364-1.044-.09 0-.21.253-.724.253"/></defs><clipPath id="h"><use xlink:href="#g" overflow="visible"/></clipPath><linearGradient id="i" gradientUnits="userSpaceOnUse" x1="-700.793" y1="3375.17" x2="-700.741" y2="3375.17" gradientTransform="scale(357.9453) rotate(30 -6648.69 -379.68)"><stop offset="0" stop-color="#48C1C4"/><stop offset=".466" stop-color="#48C1C4"/><stop offset="1" stop-color="#1B6868"/></linearGradient><path clip-path="url(#h)" fill="url(#i)" d="M35.152 20.506L58.017 34.34 43.655 60.41 20.79 46.578"/></svg>