<svg xmlns="http://www.w3.org/2000/svg" width="27" height="27" viewBox="0 0 27 27"><g fill="none" stroke="#999" stroke-linecap="round" stroke-miterlimit="10"><path d="M24.5 22.5c0 1.104-.896 2-2 2h-19c-1.104 0-2-.896-2-2v-16c0-1.104.896-2 2-2h19c1.104 0 2 .896 2 2v16zM7.5 1v5M12.5 1v5M18.5 1v5"/><path d="M4.5 9.5h2v2h-2zM9.5 9.5h2v2h-2zM14.5 9.5h2v2h-2zM19.5 9.5h2v2h-2zM4.5 14.5h2v2h-2zM9.5 14.5h2v2h-2zM14.5 14.5h2v2h-2zM19.5 14.5h2v2h-2zM4.5 19.5h2v2h-2zM9.5 19.5h2v2h-2zM14.5 19.5h2v2h-2zM19.5 19.5h2v2h-2z"/></g></svg>