<svg xmlns="http://www.w3.org/2000/svg" width="27" height="27" viewBox="0 0 27 27"><path fill="none" stroke="#999" stroke-linecap="round" stroke-miterlimit="10" d="M23 22.5h2.5c0-3.313-2.687-6-6-6h-12c-3.313 0-6 2.687-6 6H4M7.5 16.5l3-3.908V16"/><circle fill="none" stroke="#999" stroke-linecap="round" stroke-miterlimit="10" cx="7.917" cy="22.25" r="2.75"/><circle fill="none" stroke="#999" stroke-linecap="round" stroke-miterlimit="10" cx="18.917" cy="22.25" r="2.75"/><circle fill="#999" cx="7.971" cy="22.25" r="1.054"/><circle fill="#999" cx="18.863" cy="22.25" r="1.054"/><path fill="none" stroke="#999" stroke-linecap="round" stroke-miterlimit="10" d="M12 22.5h3"/><g fill="none" stroke="#999" stroke-linecap="round" stroke-miterlimit="10"><circle cx="19.064" cy="5.538" r="2.788"/><path d="M23.5 13.5v-.947c0-1.692-1.06-3.053-2.75-3.053h-3.187c-1.69 0-3.063 1.36-3.063 3.053v.947h9zM16.276 5.538s2.72.844 3.37-.827c0 0 .304 1.647 2.082 1.65"/></g></svg>