<?xml version="1.0" encoding="utf-8"?>
<!-- Generator: Adobe Illustrator 16.0.0, SVG Export Plug-In . SVG Version: 6.00 Build 0)  -->
<!DOCTYPE svg PUBLIC "-//W3C//DTD SVG 1.1//EN" "http://www.w3.org/Graphics/SVG/1.1/DTD/svg11.dtd">
<svg version="1.1" xmlns="http://www.w3.org/2000/svg" xmlns:xlink="http://www.w3.org/1999/xlink" x="0px" y="0px" width="27px"
	 height="27px" viewBox="0 0 27 27" enable-background="new 0 0 27 27" xml:space="preserve">
<g id="original" display="none">
</g>
<g id="grid">
</g>
<g id="vector">
	<g>
		<g>
			<path fill="none" stroke="#999999" stroke-linecap="round" stroke-miterlimit="10" d="M14,7.499c0,0-2.461-5.77-8.232-3.693
				C0.89,5.563,1.282,11.109,3.926,14.615c1.54,2.039,3.809,3.5,5.792,5.065c1.071,0.845,3.892,2.523,4.282,3.977"/>
		</g>
		<g>
			<path fill="none" stroke="#999999" stroke-linecap="round" stroke-miterlimit="10" d="M14,23.656
				c0.388-1.454,3.209-3.131,4.281-3.977c1.984-1.565,4.253-3.026,5.792-5.065c2.645-3.505,3.037-9.052-1.842-10.809
				C16.461,1.729,14,7.499,14,7.499"/>
		</g>
	</g>
	<g>
		<defs>
			<path id="SVGID_16_" d="M15.28,44.114v-4.973c0-0.275,0.021-0.413,0.066-0.413c0.042,0,0.122,0.115,0.24,0.344
				c0.406,0.855,0.968,1.811,1.68,2.865c0.713,1.039,1.333,1.825,1.857,2.361c0.028,0.03,0.043,0.053,0.043,0.068
				c0,0.062-0.151,0.092-0.458,0.092h-3.101C15.388,44.458,15.28,44.344,15.28,44.114 M9.078,44.458c0-0.03,0.153-0.245,0.458-0.642
				c0.321-0.381,0.765-1.054,1.333-2.017c0.551-0.932,1.018-1.856,1.396-2.773c0.117-0.274,0.197-0.413,0.24-0.413
				c0.044,0,0.066,0.161,0.066,0.482v5.019c0,0.23-0.109,0.344-0.328,0.344h-2.73c-0.145,0-0.254,0.011-0.327,0.034
				c-0.024,0.008-0.046,0.011-0.061,0.011C9.094,44.503,9.078,44.489,9.078,44.458 M12.964,29.664
				c-0.262,0.268-0.392,0.616-0.392,1.044v1.329c0,0.229-0.109,0.343-0.328,0.343H4.93c-0.409,0-0.744,0.137-1.005,0.413
				c-0.263,0.275-0.395,0.611-0.395,1.008c0,0.397,0.132,0.733,0.395,1.009c0.261,0.275,0.596,0.412,1.005,0.412h6.135
				c0.175,0,0.263,0.054,0.263,0.161c0,0.167-0.314,0.855-0.939,2.062c-0.597,1.192-1.594,2.704-2.992,4.537
				C6.043,43.77,4.944,45,4.099,45.672c-0.262,0.215-0.451,0.413-0.568,0.597c-0.115,0.183-0.181,0.367-0.196,0.549
				c-0.014,0.183,0.012,0.359,0.077,0.526c0.064,0.169,0.163,0.337,0.294,0.505c0.247,0.351,0.561,0.527,0.938,0.527
				c0.365,0,0.78-0.183,1.245-0.55c0.437-0.352,1.114-1.032,2.031-2.04c0.073-0.075,0.128-0.115,0.163-0.115
				c0.037,0,0.056,0.062,0.056,0.183c0,0.397,0.126,0.73,0.381,0.998c0.255,0.267,0.586,0.401,0.994,0.401h2.73
				c0.218,0,0.328,0.114,0.328,0.343v2.613c0,0.428,0.13,0.775,0.392,1.043s0.583,0.401,0.961,0.401s0.699-0.133,0.961-0.401
				c0.263-0.268,0.394-0.615,0.394-1.043v-2.613c0-0.229,0.108-0.343,0.327-0.343h3.101c0.408,0,0.739-0.134,0.994-0.401
				c0.253-0.268,0.383-0.553,0.383-0.86c0-0.321,0.017-0.481,0.054-0.481c0.034,0,0.076,0.023,0.119,0.069
				c0.466,0.489,0.863,0.886,1.19,1.192c0.327,0.306,0.593,0.52,0.797,0.642c0.407,0.275,0.757,0.412,1.047,0.412
				c0.276,0,0.576-0.19,0.896-0.572c0.321-0.397,0.481-0.788,0.481-1.169c0-0.381-0.19-0.733-0.568-1.054
				c-0.728-0.625-1.419-1.268-2.076-1.925c-0.653-0.657-1.287-1.352-1.897-2.086c-0.612-0.733-1.147-1.413-1.606-2.038
				c-0.458-0.626-0.855-1.207-1.19-1.742c-0.668-1.085-1.005-1.719-1.005-1.903c0-0.076,0.096-0.115,0.286-0.115h6.419
				c0.408,0,0.743-0.137,1.005-0.412c0.262-0.275,0.394-0.611,0.394-1.009c0-0.397-0.132-0.733-0.394-1.008
				c-0.262-0.276-0.597-0.413-1.005-0.413h-7.424c-0.219,0-0.327-0.114-0.327-0.343v-1.329c0-0.428-0.131-0.776-0.394-1.044
				c-0.262-0.266-0.583-0.4-0.961-0.4S13.226,29.398,12.964,29.664"/>
		</defs>
		<clipPath id="SVGID_2_">
			<use xlink:href="#SVGID_16_"  overflow="visible"/>
		</clipPath>
		
			<linearGradient id="SVGID_4_" gradientUnits="userSpaceOnUse" x1="-784.5752" y1="3351.0771" x2="-784.5177" y2="3351.0771" gradientTransform="matrix(380.9514 219.9424 219.9424 -380.9514 -438155.9062 1449192.625)">
			<stop  offset="0" style="stop-color:#48C1C4"/>
			<stop  offset="0.4664" style="stop-color:#48C1C4"/>
			<stop  offset="1" style="stop-color:#1B6868"/>
		</linearGradient>
		<polygon clip-path="url(#SVGID_2_)" fill="url(#SVGID_4_)" points="8.657,19.562 33.908,34.862 19.333,61.356 -5.917,46.057 		"/>
	</g>
</g>
<g id="measurement" display="none">
</g>
</svg>
