<svg xmlns="http://www.w3.org/2000/svg" width="18" height="18" viewBox="0 0 18 18"><path fill="#FFF" stroke="#F66" stroke-miterlimit="10" d="M6.566 3.385h.166c.01.004.017.01.026.01.352.01.684.104 1.006.24.39.162.73.402 1.06.656.206.16.4.336.603.508.002-.002.014-.01.024-.02.325-.32.688-.592 1.068-.842.404-.266.84-.45 1.323-.52.09-.014.18-.02.27-.03h.165c.018.003.037.01.056.01.44.01.87.076 1.28.24.654.26 1.136.702 1.435 1.335.158.336.24.69.275 1.058.005.067.014.135.02.2v.413c-.003.018-.01.034-.01.05-.032.384-.138.746-.3 1.093-.22.475-.517.903-.877 1.28-.375.394-.77.77-1.16 1.147-.573.55-1.15 1.098-1.727 1.647-.467.446-.933.895-1.4 1.34-.12.114-.227.25-.41.27h-.082c-.1-.026-.188-.066-.265-.14-.37-.357-.74-.71-1.11-1.066-.523-.496-1.044-.994-1.564-1.494l-.972-.928c-.206-.196-.42-.386-.618-.59-.27-.275-.505-.58-.72-.9-.29-.433-.482-.903-.582-1.413-.02-.096-.03-.196-.045-.293V6.22c.002-.013.01-.026.01-.04.017-.335.075-.664.19-.98.235-.64.653-1.122 1.26-1.44.455-.24.946-.337 1.456-.363.05 0 .1-.007.15-.01z"/></svg>