<svg xmlns="http://www.w3.org/2000/svg" xmlns:xlink="http://www.w3.org/1999/xlink" width="27" height="27" viewBox="0 0 27 27"><path fill="none" stroke="#999" stroke-linecap="round" stroke-miterlimit="10" d="M14 7.5s-2.46-5.77-8.232-3.694C.89 5.563 1.282 11.11 3.926 14.616c1.54 2.038 3.81 3.5 5.792 5.064 1.07.845 3.892 2.523 4.282 3.977m0 0c.388-1.455 3.21-3.13 4.28-3.978 1.985-1.567 4.254-3.028 5.793-5.067 2.645-3.505 3.037-9.052-1.842-10.81C16.46 1.73 14 7.5 14 7.5"/><defs><path id="a" d="M15.28 44.114V39.14c0-.274.02-.412.066-.412.042 0 .122.115.24.344.406.855.968 1.81 1.68 2.865.713 1.04 1.333 1.825 1.857 2.36.028.03.043.054.043.07 0 .06-.15.09-.458.09h-3.1c-.22 0-.328-.113-.328-.343m-6.202.344c0-.03.153-.245.458-.642.32-.38.765-1.054 1.333-2.017.55-.934 1.016-1.858 1.394-2.775.117-.274.197-.413.24-.413.044 0 .066.16.066.482v5.02c0 .23-.108.343-.327.343h-2.73c-.145 0-.254.01-.327.034-.024.01-.046.01-.06.01-.032 0-.048-.012-.048-.043m3.886-14.794c-.262.268-.392.616-.392 1.044v1.33c0 .228-.11.342-.328.342H4.93c-.41 0-.744.136-1.005.412-.263.275-.395.61-.395 1.008s.132.734.395 1.01c.26.275.596.412 1.005.412h6.135c.175 0 .263.054.263.16 0 .168-.314.856-.94 2.063-.596 1.192-1.593 2.704-2.99 4.537-1.355 1.788-2.454 3.018-3.3 3.69-.26.215-.45.413-.567.597-.113.18-.18.365-.194.547-.014.183.012.36.077.526.064.17.163.337.294.505.247.35.56.526.938.526.365 0 .78-.183 1.245-.55.436-.352 1.113-1.032 2.03-2.04.073-.075.128-.115.163-.115.037 0 .056.062.056.183 0 .397.124.73.38.998.254.268.585.4.993.4h2.73c.218 0 .328.116.328.345v2.613c0 .427.13.774.393 1.042s.583.4.96.4.7-.132.962-.4c.263-.268.394-.615.394-1.043v-2.614c0-.23.107-.343.326-.343h3.1c.41 0 .74-.134.995-.4.254-.27.384-.554.384-.86 0-.322.017-.482.054-.482.033 0 .075.024.118.07.466.49.863.886 1.19 1.192.327.306.593.52.797.642.407.275.757.412 1.047.412.276 0 .576-.19.896-.572.32-.397.48-.788.48-1.17 0-.38-.19-.732-.567-1.053-.728-.625-1.42-1.268-2.076-1.925-.653-.657-1.287-1.352-1.897-2.086-.612-.734-1.147-1.414-1.606-2.04-.457-.625-.854-1.206-1.19-1.74-.667-1.086-1.004-1.72-1.004-1.904 0-.076.096-.115.286-.115h6.42c.407 0 .742-.136 1.004-.41.262-.276.394-.61.394-1.01 0-.397-.13-.733-.393-1.008-.262-.276-.597-.413-1.005-.413h-7.424c-.22 0-.327-.115-.327-.344v-1.33c0-.427-.13-.775-.392-1.043-.262-.266-.583-.4-.96-.4s-.7.134-.963.4"/></defs><clipPath id="b"><use xlink:href="#a" overflow="visible"/></clipPath><linearGradient id="c" gradientUnits="userSpaceOnUse" x1="-784.575" y1="3351.077" x2="-784.518" y2="3351.077" gradientTransform="rotate(30 -2923308.104 -93013.64) scale(439.8848)"><stop offset="0" stop-color="#48C1C4"/><stop offset=".466" stop-color="#48C1C4"/><stop offset="1" stop-color="#1B6868"/></linearGradient><path clip-path="url(#b)" fill="url(#c)" d="M8.657 19.562l25.25 15.3-14.574 26.494-25.25-15.3"/></svg>