<?xml version="1.0" encoding="utf-8"?>
<!-- Generator: Adobe Illustrator 16.0.0, SVG Export Plug-In . SVG Version: 6.00 Build 0)  -->
<!DOCTYPE svg PUBLIC "-//W3C//DTD SVG 1.1//EN" "http://www.w3.org/Graphics/SVG/1.1/DTD/svg11.dtd">
<svg version="1.1" xmlns="http://www.w3.org/2000/svg" xmlns:xlink="http://www.w3.org/1999/xlink" x="0px" y="0px" width="18px"
	 height="18px" viewBox="0 0 18 18" enable-background="new 0 0 18 18" xml:space="preserve">
<g id="original" display="none">
</g>
<g id="grid">
</g>
<g id="vector">
	<g id="XcMO8h.tif_12_">
		<g>
			<g>
				<path fill="#FFFFFF" stroke="#FF6666" stroke-miterlimit="10" d="M6.566,3.385c0.055,0,0.111,0,0.166,0
					c0.009,0.004,0.017,0.01,0.026,0.01C7.11,3.406,7.442,3.499,7.764,3.634c0.389,0.163,0.729,0.403,1.059,0.657
					c0.207,0.159,0.4,0.334,0.604,0.506c0.002-0.002,0.014-0.009,0.024-0.019c0.323-0.321,0.686-0.593,1.066-0.843
					c0.404-0.266,0.841-0.449,1.323-0.52c0.089-0.014,0.178-0.021,0.268-0.031c0.055,0,0.111,0,0.166,0
					c0.018,0.004,0.037,0.01,0.056,0.01c0.441,0.01,0.871,0.077,1.281,0.242c0.652,0.26,1.134,0.701,1.433,1.334
					c0.158,0.335,0.241,0.689,0.275,1.057c0.006,0.067,0.015,0.135,0.022,0.201c0,0.138,0,0.275,0,0.412
					c-0.004,0.017-0.01,0.033-0.011,0.05c-0.032,0.383-0.138,0.745-0.3,1.092c-0.221,0.475-0.517,0.903-0.877,1.28
					c-0.375,0.394-0.77,0.77-1.161,1.147c-0.572,0.552-1.15,1.099-1.726,1.648c-0.467,0.446-0.933,0.895-1.401,1.341
					c-0.119,0.113-0.226,0.248-0.408,0.27c-0.028,0-0.056,0-0.083,0c-0.1-0.027-0.188-0.067-0.265-0.141
					c-0.369-0.357-0.74-0.711-1.11-1.066c-0.521-0.498-1.042-0.996-1.562-1.496c-0.324-0.309-0.648-0.618-0.972-0.928
					C5.259,9.641,5.046,9.451,4.847,9.247c-0.27-0.275-0.505-0.581-0.719-0.901c-0.29-0.432-0.483-0.902-0.583-1.412
					C3.526,6.838,3.514,6.738,3.5,6.641c0-0.141,0-0.282,0-0.424c0.003-0.012,0.009-0.025,0.01-0.038
					c0.018-0.335,0.076-0.664,0.192-0.98c0.234-0.64,0.652-1.122,1.259-1.44C5.416,3.52,5.907,3.422,6.417,3.396
					C6.466,3.395,6.517,3.389,6.566,3.385z"/>
			</g>
		</g>
	</g>
	<g>
	</g>
</g>
<g id="measurement" display="none">
</g>
</svg>
