<svg xmlns="http://www.w3.org/2000/svg" width="18" height="18" viewBox="0 0 18 18"><path fill="#FFF" stroke="#F66" stroke-miterlimit="10" d="M6.566 3.385h.166c.01.004.017.01.026.01.352.01.684.104 1.006.24.39.162.73.402 1.06.656.206.16.4.335.603.507.002-.002.014-.01.024-.02.324-.32.687-.592 1.067-.842.404-.266.84-.45 1.323-.52.09-.014.178-.02.268-.03h.166c.018.003.037.01.056.01.44.01.87.076 1.28.24.653.26 1.135.702 1.434 1.335.158.335.24.69.275 1.057.005.067.014.135.02.2v.413c-.003.017-.01.033-.01.05-.032.383-.138.745-.3 1.092-.22.475-.517.903-.877 1.28-.375.394-.77.77-1.16 1.147-.573.55-1.15 1.098-1.727 1.647-.467.446-.933.895-1.4 1.34-.12.114-.227.25-.41.27h-.082c-.1-.026-.188-.066-.265-.14-.37-.357-.74-.71-1.11-1.066-.522-.497-1.043-.995-1.563-1.495l-.972-.928c-.206-.196-.42-.386-.618-.59-.27-.275-.505-.58-.72-.9-.29-.433-.482-.903-.582-1.413-.02-.096-.03-.196-.045-.293v-.423c.003-.012.01-.025.01-.038.018-.336.076-.665.192-.98.234-.64.652-1.123 1.26-1.44.454-.24.945-.338 1.455-.364.05 0 .1-.007.15-.01z"/></svg>