<svg xmlns="http://www.w3.org/2000/svg" width="18" height="18" viewBox="0 0 18 18"><path fill="#FFF" stroke="#F66" stroke-miterlimit="10" d="M6.566 3.385h.166c.01.004.017.01.026.01.352.01.684.104 1.006.24.39.162.73.402 1.06.656.206.16.4.338.603.51.002-.002.014-.01.024-.02.327-.32.69-.592 1.07-.842.404-.266.84-.45 1.323-.52.09-.014.18-.02.27-.03h.165c.018.003.037.01.056.01.44.01.87.076 1.28.24.654.26 1.136.702 1.435 1.335.157.336.24.69.274 1.058.005.068.014.136.02.2v.414c-.003.018-.01.034-.01.05-.032.384-.138.746-.3 1.093-.22.475-.517.903-.877 1.28-.375.394-.77.77-1.16 1.147-.573.55-1.15 1.098-1.727 1.647-.468.447-.934.896-1.4 1.34-.12.115-.228.25-.41.27h-.083c-.1-.025-.188-.065-.265-.14l-1.11-1.065c-.523-.496-1.044-.994-1.564-1.494l-.972-.927c-.206-.196-.42-.386-.618-.59-.27-.275-.505-.58-.72-.9-.29-.433-.482-.903-.582-1.413-.02-.097-.03-.197-.045-.294V6.22c.004-.013.01-.026.01-.04.02-.335.077-.664.19-.98.237-.64.655-1.122 1.26-1.44.457-.24.948-.337 1.458-.363.05 0 .1-.007.15-.01z"/></svg>