<svg xmlns="http://www.w3.org/2000/svg" xmlns:xlink="http://www.w3.org/1999/xlink" width="27" height="27" viewBox="0 0 27 27"><path fill="none" stroke="#999" stroke-linecap="round" stroke-miterlimit="10" d="M14 7.5s-2.46-5.77-8.232-3.694C.89 5.563 1.282 11.11 3.926 14.616c1.54 2.038 3.81 3.5 5.792 5.064 1.07.845 3.892 2.523 4.282 3.977m0 0c.388-1.455 3.21-3.13 4.28-3.978 1.985-1.57 4.254-3.03 5.793-5.07 2.645-3.504 3.037-9.05-1.842-10.81C16.46 1.73 14 7.5 14 7.5"/><defs><path id="a" d="M15.28 44.114V39.14c0-.274.02-.412.066-.412.042 0 .122.115.24.344.406.855.968 1.81 1.68 2.865.713 1.04 1.333 1.825 1.857 2.36.028.03.043.054.043.07 0 .06-.15.09-.458.09h-3.1c-.22 0-.328-.113-.328-.343m-6.202.344c0-.03.153-.245.458-.642.32-.38.765-1.054 1.333-2.017.55-.936 1.014-1.86 1.392-2.777.117-.274.197-.413.24-.413.044 0 .066.16.066.483v5.02c0 .23-.11.343-.328.343H9.51c-.145 0-.254.01-.327.034-.024.01-.046.01-.06.01-.032 0-.048-.012-.048-.043m3.886-14.794c-.26.268-.39.616-.39 1.044v1.33c0 .228-.11.342-.328.342H4.93c-.41 0-.744.134-1.005.41-.263.275-.395.61-.395 1.01s.132.732.395 1.01c.26.273.596.41 1.005.41h6.135c.175 0 .263.054.263.16 0 .17-.314.856-.94 2.063-.596 1.192-1.593 2.704-2.99 4.537-1.355 1.79-2.454 3.02-3.3 3.69-.26.216-.45.414-.567.598-.11.18-.18.365-.192.547-.014.183.012.36.077.526.064.17.163.34.294.507.246.35.56.526.937.526.365 0 .78-.183 1.245-.55.437-.352 1.114-1.032 2.03-2.04.074-.075.13-.115.164-.115.037 0 .056.062.056.183 0 .398.124.73.38 1 .254.267.585.4.993.4h2.73c.218 0 .328.115.328.344v2.613c0 .427.13.774.394 1.042s.583.4.96.4.7-.133.962-.4c.262-.27.393-.616.393-1.044V47.59c0-.23.107-.342.326-.342h3.1c.41 0 .74-.134.994-.4.255-.27.385-.554.385-.86 0-.322.016-.482.053-.482.032 0 .074.024.117.07.466.49.863.886 1.19 1.192.327.306.593.52.797.642.407.275.757.412 1.047.412.277 0 .577-.19.897-.572.32-.397.48-.788.48-1.17 0-.38-.19-.732-.566-1.053-.728-.625-1.42-1.268-2.076-1.925-.653-.657-1.287-1.352-1.897-2.086-.61-.734-1.146-1.414-1.605-2.04-.456-.625-.853-1.206-1.19-1.74-.666-1.086-1.003-1.72-1.003-1.904 0-.076.096-.115.286-.115h6.42c.407 0 .742-.136 1.004-.41.262-.276.394-.61.394-1.01 0-.397-.13-.733-.392-1.008-.262-.278-.597-.415-1.005-.415h-7.43c-.22 0-.328-.115-.328-.344V30.7c0-.426-.13-.774-.392-1.042-.262-.267-.583-.4-.96-.4s-.7.133-.963.4"/></defs><clipPath id="b"><use xlink:href="#a" overflow="visible"/></clipPath><linearGradient id="c" gradientUnits="userSpaceOnUse" x1="-784.575" y1="3351.077" x2="-784.518" y2="3351.077" gradientTransform="rotate(30 -2923308.104 -93013.64) scale(439.8848)"><stop offset="0" stop-color="#48C1C4"/><stop offset=".466" stop-color="#48C1C4"/><stop offset="1" stop-color="#1B6868"/></linearGradient><path clip-path="url(#b)" fill="url(#c)" d="M8.657 19.562l25.25 15.3-14.574 26.494-25.25-15.3"/></svg>