<?xml version="1.0" encoding="utf-8"?>
<!-- Generator: Adobe Illustrator 16.0.0, SVG Export Plug-In . SVG Version: 6.00 Build 0)  -->
<!DOCTYPE svg PUBLIC "-//W3C//DTD SVG 1.1//EN" "http://www.w3.org/Graphics/SVG/1.1/DTD/svg11.dtd">
<svg version="1.1" xmlns="http://www.w3.org/2000/svg" xmlns:xlink="http://www.w3.org/1999/xlink" x="0px" y="0px" width="18px"
	 height="18px" viewBox="0 0 18 18" enable-background="new 0 0 18 18" xml:space="preserve">
<g id="original" display="none">
</g>
<g id="grid">
</g>
<g id="vector">
	<g id="XcMO8h.tif_13_">
		<g>
			<g>
				<path fill="#FF6666" d="M5.866,2.891c0.061,0,0.122,0,0.183,0c0.01,0.004,0.019,0.011,0.029,0.011
					c0.385,0.013,0.75,0.115,1.104,0.263c0.427,0.179,0.8,0.443,1.163,0.722c0.226,0.175,0.439,0.366,0.663,0.555
					c0.002-0.002,0.016-0.009,0.026-0.02c0.354-0.353,0.753-0.651,1.171-0.926c0.444-0.292,0.923-0.493,1.453-0.57
					c0.097-0.015,0.195-0.022,0.293-0.034c0.061,0,0.122,0,0.183,0c0.02,0.004,0.04,0.011,0.061,0.011
					c0.484,0.011,0.957,0.085,1.407,0.266c0.716,0.285,1.246,0.77,1.573,1.464C15.348,5,15.438,5.39,15.476,5.792
					c0.007,0.074,0.017,0.148,0.024,0.221c0,0.151,0,0.302,0,0.453c-0.004,0.018-0.011,0.037-0.012,0.055
					c-0.035,0.42-0.152,0.818-0.33,1.198c-0.243,0.521-0.567,0.992-0.963,1.406c-0.412,0.432-0.845,0.845-1.274,1.259
					c-0.628,0.606-1.263,1.206-1.895,1.81c-0.513,0.49-1.024,0.982-1.539,1.472c-0.131,0.125-0.248,0.272-0.448,0.296
					c-0.031,0-0.062,0-0.09,0c-0.109-0.03-0.207-0.074-0.291-0.154c-0.405-0.393-0.812-0.781-1.219-1.171
					c-0.572-0.547-1.144-1.094-1.715-1.643c-0.355-0.338-0.711-0.678-1.067-1.018C4.431,9.759,4.197,9.551,3.979,9.328
					c-0.296-0.303-0.554-0.638-0.79-0.99c-0.318-0.474-0.531-0.991-0.64-1.55C2.528,6.682,2.515,6.573,2.5,6.466
					c0-0.154,0-0.31,0-0.465c0.003-0.013,0.009-0.028,0.011-0.042c0.02-0.368,0.083-0.729,0.211-1.076
					C2.979,4.18,3.438,3.65,4.104,3.3c0.499-0.261,1.039-0.369,1.598-0.396C5.757,2.902,5.812,2.896,5.866,2.891z"/>
			</g>
		</g>
	</g>
	<g>
		<line fill="#FFFFFF" stroke="#999999" stroke-miterlimit="10" x1="4.5" y1="0" x2="4.5" y2="-9"/>
	</g>
	<g>
		<line fill="none" stroke="#33CCCC" stroke-miterlimit="10" x1="13.5" y1="0" x2="13.5" y2="-9"/>
	</g>
</g>
<g id="measurement" display="none">
	<rect x="-18" display="inline" fill="#00FFFF" width="18" height="18"/>
</g>
</svg>
