<svg xmlns="http://www.w3.org/2000/svg" width="18" height="18" viewBox="0 0 18 18"><path fill="#F66" d="M5.866 2.89h.183c.01.005.018.012.028.012.385.013.75.115 1.104.263.427.18.8.443 1.163.722.226.175.44.366.663.555.002-.002.016-.01.026-.02.354-.353.753-.65 1.17-.926.445-.292.924-.493 1.454-.57.097-.015.195-.022.293-.034h.184c.02.004.04.01.06.01.485.012.958.086 1.408.267.716.284 1.246.77 1.573 1.463.173.367.263.757.3 1.16.008.073.018.147.025.22v.453c-.004.018-.01.037-.012.055-.035.42-.152.82-.33 1.2-.243.52-.567.99-.963 1.405-.412.432-.845.845-1.274 1.26-.627.605-1.262 1.205-1.894 1.81-.513.49-1.024.98-1.54 1.47-.13.126-.247.273-.447.297h-.09c-.11-.03-.208-.074-.292-.154-.405-.393-.812-.78-1.22-1.17l-1.714-1.644-1.067-1.018c-.226-.217-.46-.425-.678-.648-.297-.303-.555-.638-.79-.99-.32-.474-.532-.99-.64-1.55-.022-.106-.035-.215-.05-.322V6c.003-.012.01-.027.01-.04.02-.37.084-.73.212-1.077.257-.703.716-1.233 1.382-1.583.5-.26 1.04-.37 1.598-.396.055-.002.11-.008.164-.013z"/><path fill="#FFF" stroke="#999" stroke-miterlimit="10" d="M4.5 0v-9"/><path fill="none" stroke="#3CC" stroke-miterlimit="10" d="M13.5 0v-9"/></svg>