<svg xmlns="http://www.w3.org/2000/svg" width="30" height="30" viewBox="0 0 30 30"><path fill="none" d="M15 4C8.935 4 4 8.935 4 15h22c0-6.065-4.935-11-11-11zm0 22c6.065 0 11-4.935 11-11H4c0 6.065 4.935 11 11 11z"/><path fill="#3CC" d="M15 26C8.935 26 4 21.065 4 15H1c0 7.72 6.28 14 14 14s14-6.28 14-14h-3c0 6.065-4.935 11-11 11z"/><linearGradient id="a" gradientUnits="userSpaceOnUse" x1="1" y1="8" x2="29" y2="8"><stop offset="0" stop-color="#3CC" stop-opacity="0"/><stop offset="1" stop-color="#3CC"/></linearGradient><path fill="url(#a)" d="M15 1C7.28 1 1 7.28 1 15h3C4 8.935 8.935 4 15 4s11 4.935 11 11h3c0-7.72-6.28-14-14-14z"/></svg>