<svg xmlns="http://www.w3.org/2000/svg" width="27" height="27" viewBox="0 0 27 27"><g fill="none" stroke="#999" stroke-linecap="round" stroke-miterlimit="10"><circle cx="12.917" cy="5.667" r="2.917"/><path d="M12.922 10.166c-1.575.148-2.837 1.43-3.087 3-.34 2.126 1.446 2.934 1.624 4.96.206 2.374.04 3.207 1.456 3.374 1.902-.167 1.678-1 1.958-3.375s1.958-2.29 1.958-4.794c0-2.22-2.055-3.34-3.91-3.163z"/><path d="M16.835 18.692c1.12.432 1.832 1.072 1.832 1.787 0 1.3-2.35 2.352-5.25 2.352s-5.25-1.054-5.25-2.354c0-.65.588-1.24 1.538-1.666"/><path d="M19.802 18.125c1.165.78 1.865 1.782 1.865 2.875 0 2.485-3.62 4.5-8.083 4.5S5.5 23.485 5.5 21c0-.846.42-1.637 1.147-2.313"/></g></svg>