<svg xmlns="http://www.w3.org/2000/svg" width="45" height="45" viewBox="0 0 45 45"><circle fill="#F66" cx="22.064" cy="22.964" r="18.96"/><path fill-rule="evenodd" clip-rule="evenodd" fill="#FFF" d="M24.364 22.575c2.14 1.886 3.034 4.303 3.32 7.015.022.22.273.488.488.596.636.317 1.075.75.906 1.49-.16.706-.672 1.028-1.413 1.026-3.765-.01-7.53-.01-11.295 0-.7.003-1.188-.298-1.394-.94-.206-.64.15-1.08.644-1.472.23-.18.468-.48.505-.752.36-2.643 1.133-5.087 3.146-6.938-.652-.884-1.45-1.648-1.854-2.582-.608-1.4-.93-2.924-1.402-4.385-.12-.367-.38-.686-.527-1.047-.19-.47-.56-1.043-.425-1.416.14-.386.79-.823 1.223-.83 3.825-.063 7.65-.04 11.477-.035.742 0 1.222.386 1.332 1.108.108.705-.325 1.104-.927 1.397-.248.12-.566.358-.614.592-.785 3.837-.777 3.84-3.186 7.173zm2.494-7.662h-10.35c.39 1.408.605 2.735 1.128 3.93.646 1.472 1.337 3.037 3.25 3.353.09.015.236.262.204.33-.062.134-.223.23-.357.322-.63.425-1.396.73-1.875 1.284-1.248 1.442-1.705 3.237-1.98 5.095-.11.734.064.964.82.954 2.79-.035 5.582-.012 8.374-.016.265 0 .53-.038.92-.068-.24-2.735-.896-5.18-3.13-6.92-.223-.174-.554-.203-.822-.325-.17-.077-.315-.205-.472-.31.13-.132.244-.29.395-.39.587-.395 1.313-.66 1.757-1.175 1.468-1.694 1.94-3.78 2.138-6.06zm-4.82-.795c1.79 0 3.583.028 5.372-.025.325-.01.64-.354.96-.543-.33-.18-.66-.512-.994-.516-3.58-.037-7.163-.038-10.744.002-.322.004-.64.356-.96.547.33.18.66.502.995.512 1.79.05 3.58.024 5.37.023zm-.02 16.764c-1.79 0-3.582-.028-5.37.024-.332.01-.652.345-.978.53.327.184.652.524.98.528 3.58.038 7.163.038 10.744 0 .327-.004.65-.348.976-.533-.326-.182-.65-.514-.98-.522-1.79-.053-3.58-.025-5.37-.025z"/></svg>